<svg width="550" height="400" version="1.1" id="svg5" xml:space="preserve" xmlns:xlink="http://www.w3.org/1999/xlink" xmlns="http://www.w3.org/2000/svg">
  <defs id="defs2">
    <linearGradient xlink:href="#linearGradient6292" id="linearGradient6312" x1="185.06396" y1="307.84872" x2="185.30064" y2="271.59473" gradientUnits="userSpaceOnUse" spreadMethod="reflect" gradientTransform="translate(80.653335 -.84651185)"/>
    <linearGradient id="linearGradient6292">
      <stop style="stop-color:#fd5;stop-opacity:1" offset="0" id="stop6288"/>
      <stop style="stop-color:#ff0b0b;stop-opacity:.79874212" offset=".34793249" id="stop6290"/>
    </linearGradient>
  </defs>
  <g id="hendi" transform="translate(-9.9999997 -9.9999995)">
    <path style="display:inline;fill:#ccc" d="M144.64227 302.20548h-1.52916c-.38902 0-.59649 0-1.55616.10369s-2.67133.31116-4.48698.82981c-1.81565.51865-3.73479 1.34855-5.08375 2.64565-1.34895 1.29709-2.12698 3.06062-2.74939 5.13558-.62242 2.07496-1.08923 4.4609-1.29663 7.9882-.2074 3.52729-.15553 8.19546.15592 11.25588.31146 3.06041.88201 4.51273 3.6833 5.34206 2.80129.82933 7.83255 1.03681 24.79417 1.1924 16.96161.15559 45.85239.25932 60.32403.31119 14.47162.0519 14.52346.0519 14.54889 1.73816.0254 1.6863.0254 5.05775.0513 6.63962.0258 1.58187.0777 1.3744-15.58664 1.37405-15.66434-.00036-47.0448.20712-63.61706.10351-16.57227-.1036-18.33579-.51855-20.12533-.88168-1.78953-.36313-3.60493-.67434-5.57603-1.76325-1.9711-1.08891-4.09772-2.95618-5.47271-5.93862-1.375-2.98244-1.99742-7.08005-2.33465-10.84068-.33723-3.76064-.3891-7.18396-.2854-10.89271.10371-3.70875.36305-7.70263 1.40048-10.65966 1.03743-2.95704 2.85282-4.87617 4.43495-6.35453 1.58211-1.47836 2.93069-2.51573 4.56476-3.47538 1.63406-.95964 3.5532-1.84141 5.47259-2.41193 1.91939-.57052 3.83854-.82987 5.57626-.95948 1.73772-.12962 3.29377-.12962 4.84886-.12962" id="tube3"/>
    <path id="tube2" style="display:inline;fill:#ccc" d="M280.05581 287.64577c-2.69323.0178-5.5951.23648-8.40234.57617-3.74302.45292-7.31855 1.12097-10.29884 2.16992-2.98029 1.04896-5.36437 2.47921-7.3672 4.50586-2.00282 2.02665-3.62371 4.64898-4.625 6.91406-1.00129 2.26509-1.38275 4.17125-1.62109 6.7461-.23834 2.57483-.3332 5.8167-.38086 9.03515-.0477 3.21846-.0483 6.41341-.0723 8.08203-.0239 1.66864-.0705 1.812 1.52735 1.85938 1.59786.0474 4.8382.00035 6.43554-.0234 1.59736-.0238 1.55015-.0235 1.50197-2.47851-.0482-2.45503-.0958-7.36621.26171-11.22852s1.12168-6.67556 2.12305-8.75 2.24002-3.40908 3.74219-4.50586c1.50216-1.09678 3.26591-1.95673 4.74414-2.55273 1.47823-.59601 2.67036-.9285 4.60157-1.11914 1.93122-.19064 4.60122-.23789 6.00781-.26172 1.40661-.0238 1.55028-.0243 2.50391.0234.95363.0477 2.71806.14185 4.72071.52344 2.00266.38159 4.24271 1.05008 5.72071 1.76563 1.47799.71554 2.19442 1.47896 3.05273 2.26562.85832.78666 1.85814 1.59593 2.5254 2.38281.66725.7869 1.00135 1.55012 1.16797 2.28907.16662.73894.16602 1.45376.16602 2.16797l.78711.0801h.36914c.17613-.005.35124-.0155.52734-.0215.15119-.005.30186-.008.45313-.01.1112-.001.22274-.002.33398-.002.11122-.00023.22276.00005.33398 0 .10565-.00003.21076 0 .31641 0 .12184-.00001.24339 0 .36523 0h.77735c.12105-.003.24262.008.36328.0156.10877.007.21718.01.32617.0117.11193.002.22399.004.33594.004.14737.00038.29406-.00009.4414 0 .11272.00006.22519-.00001.3379 0 .10338.001.20752-.0106.31054-.0176.12217-.008.24483-.0126.36719-.01.13697.0109.27329.0289.41016.041.10501.008.20918.0126.31445.0156.11819.002.23726.004.35547.004.11926.004.23746-.0152.35547-.0293.0922-.009.18368-.0183.27539-.0273.0284-1.4481-.003-2.89895-.44531-4.36718-.52411-1.74025-1.62038-3.50435-3.28907-5.55469-1.66869-2.05034-3.91043-4.38725-5.86523-5.96094-1.95481-1.57369-3.62424-2.38463-5.86525-3.07617-2.241-.69155-5.05247-1.26266-8.41407-1.42969-.8404-.0418-1.71554-.0587-2.61328-.0527zm21.69924 20.75976.21484.0215c.007-.005.0216-.004.0352 0 .0889-.004.17906-.007.26758-.0156.0196-.002.039-.004.0586-.006h-.33203z"/>
    <path style="display:inline;fill:#ccc" d="M273.69929 336.88825c17.89237-.0461 35.78374-.0922 45.76679-.4151 9.98306-.32289 12.05804-.92233 13.80995-2.0289 1.7519-1.10658 3.18134-2.72045 4.91056-4.65717 1.72921-1.93672 3.75809-4.19615 6.50196-6.34048 2.74386-2.14434 6.20218-4.17322 10.72142-5.71795 4.51924-1.54474 10.09866-2.60529 15.12496-3.27387 5.0263-.66858 9.49906-.94524 15.05562-1.15273 5.55657-.20749 12.19653-.34582 18.14502-.39191 5.94848-.0461 11.20512.00001 15.19389.27679 3.98876.27677 6.7093.78399 9.19939 1.56808 2.49009.78409 4.74952 1.84464 6.77837 3.22821 2.02884 1.38358 3.82716 3.08967 4.91047 4.54232 1.0833 1.45264 1.45219 2.65153 1.63645 4.15008.18426 1.49855.18426 3.29687.11509 4.26472-.0692.96785-.2075 1.10618-1.70566 1.17534-1.49816.0692-4.35703.0692-5.787-.0456-1.42996-.11478-1.42996-.34533-1.476-.82946-.046-.48413-.13827-1.2219-.25353-2.05191-.11527-.83002-.25361-1.75223-.71423-2.46716-.46063-.71492-1.24452-1.22214-2.30509-1.70648-1.06056-.48435-2.39778-.94546-3.66598-1.15319-1.26821-.20773-2.46709-.16162-4.1732-.18463-1.70612-.023-3.91944-.11524-7.83904-.0692-3.91959.0461-9.54511.23052-16.41587.50719-6.87074.27667-14.98625.64556-20.49665.94527-5.51042.29972-8.41539.53027-10.46742.73775-2.05203.20747-3.25091.39192-4.51913.71466-1.26821.32275-2.60543.78386-3.6894 1.52182-1.08397.73795-1.91396 1.75239-2.60555 2.49009-.69159.7377-1.24492 1.19881-1.89061 1.93673-.64568.73793-1.38345 1.75237-2.19037 2.74372-.80692.99134-1.68303 1.95968-2.85886 3.11243-1.17582 1.15276-2.65136 2.48997-4.8875 3.57354-2.23614 1.08356-5.23335 1.91356-7.93088 2.5822-2.69751.66864-5.09527 1.17585-7.60829 1.49869-2.51303.32284-5.14136.46117-14.31773.59953-9.17638.13836-24.90018.27669-40.62529.41503" id="tube1"/>
    <g id="laser" transform="matrix(.79225 0 0 1 -22.605478 -110.573)">
      <path style="display:inline;opacity:.24;fill:#ffd42a;fill-opacity:1;stroke-width:1.22959" id="rect5049" d="M80.945892 295.06836H592.53241v4.45089H80.945892Z"/>
      <path style="fill:url(#linearGradient6312);fill-opacity:1" id="rect5053" d="M80.653328 295.83441H592.23985v2.94391H80.653328Z"/>
      <path style="display:inline;fill:#ffd42a;stroke:#000;stroke-width:1.12349;stroke-opacity:1;paint-order:markers stroke fill" d="m87.624998 305.00336-22.568632.006 11.278005-15.488z" id="path4004"/>
      <ellipse style="fill:red;stroke-width:0" cx="74.275681" cy="300.1514" rx="2.2644367" ry="1.687" id="ellipse4006"/>
      <path style="fill:red;stroke-width:0" d="M68.969272 299.96336h15.548121v.402H68.969272Z" id="path4008"/>
      <path style="fill:red;stroke-width:0" d="m74.064396 304.23836-.01551-8.245.507284-.009.01551 8.245z" id="path4010"/>
      <path style="fill:red;stroke-width:0" d="M67.99357 297.24436c-.0025 0-.0076 0-.0101.002a.02524456.02 0 0 0-.01262.014v.004c.0101-.002.0202-.012.02777-.02zm1.922372.705a2.9283685 2.32 0 0 0-.126223.135 1.4717576 1.166 0 0 0-.08583.132l9.575259 4.184.07195-.068a.90880402.72 0 0 0 .117387-.123l.05049-.06z" id="path4012"/>
      <path style="fill:red;stroke-width:0" d="m70.766684 295.07436-.01641.013-.01262-.019zm1.224361 1.217 5.276112 7.653c-.04292.01-.08331.023-.126223.035a1.080467.856 0 0 0-.20953.073l-5.259703-7.627a1.7418744 1.38 0 0 1 .05806-.033c.03282-.02.06311-.04.10224-.05.05428-.015.106027-.031.157778-.05zm5.989271 8.687.02146.032-.05301-.013a.19438308.154 0 0 0 .03156-.02z" id="path4014"/>
      <path style="fill:red;stroke-width:0" d="M80.856933 296.94736c.0088.008.01893.017.03029.018v-.004a.0227201.018 0 0 0-.01515-.012c-.0025-.001-.0088-.003-.0101-.002zm-1.900915.82-9.449037 4.766c.01767.02.03787.037.0568.057.03913.04.07952.08.130009.113l.08204.064 9.425055-4.75a1.4389397 1.14 0 0 0-.100978-.125 2.870306 2.274 0 0 0-.143894-.125z" id="path4016"/>
      <path style="fill:red;stroke-width:0" d="m77.97148 295.07436.01641.013.01262-.019zm-1.224361 1.217-5.276112 7.653c.04292.01.08331.023.126223.035a1.1486273.91 0 0 1 .209529.073l5.259704-7.627a1.7418744 1.38 0 0 0-.05806-.033c-.03282-.02-.06311-.04-.10224-.05a1.7103187 1.355 0 0 1-.157779-.05zm-5.989271 8.687-.02146.032.05301-.013a.19438308.154 0 0 1-.03156-.02z" id="path4018"/>
      <path style="display:inline;fill:red;stroke-width:0" d="m73.612642 297.26081-.03482.004-.09178.0137c-.03573.008-.06971.0216-.103758.031-.04498.0113-.08961.0236-.137041.0279a1.6654925 1.0060893 24.814857 0 1-.121497.006l2.053093 5.85855.532549.0496z" id="path4020"/>
      <path style="display:inline;fill:red;stroke-width:0" d="m70.479762 299.08528.000844.006.0013.00029-.000703-.005zm.05414.012c.000703.005-.0025.009-.0029.0154l.0026.00058-.000703-.005.001-.002c-.000703-.005.000165-.008.0025-.009zm.02578.006-.0017.006c.0017.0124.0019.0234.0011.0353l-.0083.0312a.32751838.21188844 31.2475 0 1-.01631.0454c-.0053.007-.0069.0135-.0095.0219a.20893414.13517021 31.247499 0 0-.01544.0426l-.0083.0312a.44186746.28586673 31.2475 0 1-.0065.0256c.0039.00086.0093.004.0091.012.0017.0124-.0016.0247-.0025.0365l.000844.006.000398.0121c-.0023.0105-.01064.0136-.01837.0119l.000563.004c.0014.0103.000515.0221-.000516.0329l.0011.0353 7.991266 1.77334-.05338-.40997zm-.08046.1892.0011.008a.04799839.03105262 31.247501 0 1 .0015-.008z" id="path4022"/>
      <path style="display:inline;fill:red;stroke-width:0" d="m75.709489 296.98367-.53388.0497-2.178693 6.21695.531847-.0476z" id="path4024"/>
      <path style="display:inline;fill:red;stroke-width:0" d="M71.937119 297.75643c-.005.001-.007.004-.0086.006a4.8647279 2.5799957 7.9502074 0 1-.128224.0767c-.03336.0188-.06547.0372-.103349.0522-.0011.003-.0021.007-.0062.009l-.03497.0203c-.01168.004-.01973.0118-.03049.017l-.01973.0118c-.0073.005-.01902.01-.02727.014l-.02315.0118-.0156.01 5.465224 4.63507.501361-.14268z" id="path4026"/>
      <path style="display:inline;fill:red;stroke-width:0" d="M71.937119 297.75643c-.005.001-.007.004-.0086.006a4.8647279 2.5799957 7.9502074 0 1-.128224.0767c-.03336.0188-.06547.0372-.103349.0522-.0011.003-.0021.007-.0062.009l-.03497.0203c-.01168.004-.01973.0118-.03049.017l-.01973.0118c-.0073.005-.01902.01-.02727.014l-.02315.0118-.0156.01 5.465224 4.63507.501361-.14268z" id="path4028"/>
      <path style="display:inline;fill:red;stroke-width:0" d="m78.467337 299.05452-7.993701 1.81303-.05307.41183 7.996274-1.81362z" id="path4030"/>
      <path style="display:inline;fill:red;stroke-width:0" d="m77.158571 297.61107-5.652886 4.73462.229014.37361 5.652547-4.73292z" id="path4032"/>
    </g>
    <path style="display:inline;fill:#999;stroke:#000;stroke-width:.999808;stroke-linecap:square;stroke-linejoin:miter;stroke-miterlimit:4;stroke-dasharray:none;stroke-opacity:1;paint-order:markers stroke fill" id="rect274-3-9-9-1" d="M242.43936 167.3432h24.00021v39.00019h-24.00021z"/>
    <rect style="display:inline;fill:#999;stroke:#000;stroke-width:.999801;stroke-linecap:square;stroke-linejoin:miter;stroke-miterlimit:4;stroke-dasharray:none;stroke-opacity:1;paint-order:markers stroke fill" id="rect274-3-9-9-1-8" width="59.000248" height="84.000198" x="442.43951" y="17.34322" ry="0"/>
    <rect style="display:inline;fill:#999;stroke:#000;stroke-width:1.00002;stroke-linecap:square;stroke-linejoin:miter;stroke-miterlimit:4;stroke-dasharray:none;stroke-opacity:1;paint-order:markers stroke fill" id="rect274-3-9-9-1-8-5" width="39.000015" height="118.99998" x="172.43939" y="17.343311" ry="0"/>
    <rect style="display:inline;fill:#999;stroke:#000;stroke-width:1.00004;stroke-linecap:square;stroke-linejoin:miter;stroke-miterlimit:4;stroke-dasharray:none;stroke-opacity:1;paint-order:markers stroke fill" id="rect274-3-9-9-1-8-5-5" width="69.000008" height="28.999954" x="287.43951" y="102.34334" ry="0"/>
    <rect style="display:inline;fill:#999;stroke:#000;stroke-width:.999905;stroke-linecap:square;stroke-linejoin:miter;stroke-miterlimit:4;stroke-dasharray:none;stroke-opacity:1;paint-order:markers stroke fill" id="rect274-3-9-9-1-8-5-5-5" width="79.000153" height="4.0000949" x="282.43945" y="97.343246" ry="0"/>
    <rect style="display:inline;fill:#999;stroke:#000;stroke-width:.999904;stroke-linecap:square;stroke-linejoin:miter;stroke-miterlimit:4;stroke-dasharray:none;stroke-opacity:1;paint-order:markers stroke fill" id="rect274-3-9-9-1-8-5-5-2" width="14.000107" height="11.000097" x="314.93948" y="85.343277" ry="0"/>
    <rect style="display:inline;fill:#999;stroke:#000;stroke-width:.999963;stroke-linecap:square;stroke-linejoin:miter;stroke-miterlimit:4;stroke-dasharray:none;stroke-opacity:1;paint-order:markers stroke fill" id="rect274-3-9-9-1-8-5-5-6" width="69.000092" height="29.000036" x="287.43948" y="242.34328" ry="0"/>
    <rect style="display:inline;fill:#999;stroke:#000;stroke-width:.999983;stroke-linecap:square;stroke-linejoin:miter;stroke-miterlimit:4;stroke-dasharray:none;stroke-opacity:1;paint-order:markers stroke fill" id="rect274-3-9-9-1-8-5-5-6-4" width="39.000046" height="34.001369" x="172.43939" y="237.34331" ry="0"/>
    <path style="display:inline;fill:#999;stroke:#000;stroke-width:.999808;stroke-linecap:square;stroke-linejoin:miter;stroke-miterlimit:4;stroke-dasharray:none;stroke-opacity:1;paint-order:markers stroke fill" id="rect274-3-9-9-1-4" d="M377.43949 167.3432h24.0002v39.00019h-24.0002z"/>
    <path style="display:inline;fill:#999;stroke:#000;stroke-width:.999808;stroke-linecap:square;stroke-linejoin:miter;stroke-miterlimit:4;stroke-dasharray:none;stroke-opacity:1;paint-order:markers stroke fill" id="rect274-3-9-9-1-7" d="M117.43927 167.3432h24.00022v39.00019h-24.00022z"/>
    <g id="rotary-pump" transform="translate(18.345112 -92.349523)" style="display:inline">
      <path id="rect3645" style="display:inline;fill:#999;fill-opacity:1;stroke:#000;stroke-width:1;stroke-dasharray:none;stroke-opacity:1;paint-order:markers stroke fill" d="M227.59071 418.96317v1.80664h.77344v8.23242h-13.62109v-.60156h-1.7168v11.75586h1.7168v-.73828h13.62109v19.91797h-29.17773v13.21093l-.0898.002v-8.44531s-20.07226 2.15212-20.07226 5.01953c0 1.37366-.0341 2.79685-.0684 3.92382l-.041.002s-.0131 1.16675-.0176 1.64062c-.003.0816-.0156.45508-.0156.45508h.0117c-.0229 2.36173-.0684 6.69851-.12305 8.93945-.0701 2.87581 19.57766 5.11845 20.41602 5.21289v5.70899h50.42187V459.3363h-10.1289v-19.91797h13.75v.73828h1.71679v-11.75586h-1.71679v.60156h-13.75v-8.23242h.65429v-1.80664zm-23.88867 27.66016c-.35977-.00047-.77546.002-1.26758.006-1.96847.0149-5.15856.0447-6.79882.0449-.49932.00006-.85344-.002-1.10743.0293h-6.97656v7.3379h7.24805v-.0312c.82763-.0259 2.35837.001 3.38476.0156 1.05878.0149 1.56701.0156 2.0293.0156.46229 0 .87907-.00064 1.25195.0293.37289.0299.701.0907 1.10352.4043.40252.3136.87904.87888 1.11719 1.6543.23814.77541.23828 1.76092.23828 2.74414l9.93164-.17969c.0298-.9236.0598-1.84784.0449-2.66797-.0148-.82013-.0732-1.53569-.25195-2.28125-.17877-.74556-.47738-1.52137-.93946-2.29687-.46207-.77551-1.08831-1.55196-1.78906-2.19336-.70075-.64141-1.47618-1.14674-2.32617-1.56446-.84999-.41771-1.77418-.7459-2.60938-.91015-.6264-.12319-1.2039-.15485-2.2832-.15625z"/>
      <rect style="fill:#4d4d4d;stroke-width:1.07682" id="rect3687" width="24.996719" height=".98267198" x="223.82787" y="460.82504" rx=".30000001" ry=".30000001"/>
      <rect style="fill:#4d4d4d;stroke-width:1.07682" id="rect3689" width="24.996719" height=".98267198" x="223.85857" y="462.48331" rx=".30000001" ry=".30000001"/>
      <rect style="fill:#4d4d4d;stroke-width:1.07682" id="rect3691" width="24.996719" height=".98267198" x="223.91998" y="464.2644" rx=".30000001" ry=".30000001"/>
      <rect style="fill:#4d4d4d;stroke-width:1.07682" id="rect3693" width="24.996719" height=".98267198" x="223.85857" y="465.92267" rx=".30000001" ry=".30000001"/>
      <rect style="fill:#4d4d4d;stroke-width:1.07682" id="rect3695" width="24.996719" height=".98267198" x="223.79715" y="467.4581" rx=".30000001" ry=".30000001"/>
      <rect style="fill:#4d4d4d;stroke-width:1.07682" id="rect3697" width="24.996719" height=".98267198" x="223.85857" y="469.05493" rx=".30000001" ry=".30000001"/>
      <rect style="fill:#4d4d4d;stroke-width:1.07682" id="rect3699" width="24.996719" height=".98267198" x="223.89928" y="470.64542" rx=".30000001" ry=".30000001"/>
      <rect style="fill:#4d4d4d;stroke-width:1.07682" id="rect3701" width="24.996719" height=".98267198" x="223.89928" y="472.2131" rx=".30000001" ry=".30000001"/>
      <rect style="fill:#4d4d4d;stroke-width:1.07682" id="rect3703" width="24.996719" height=".98267198" x="223.84702" y="473.78079" rx=".30000001" ry=".30000001"/>
      <rect style="fill:#4d4d4d;stroke-width:1.07682" id="rect3705" width="24.996719" height=".98267198" x="223.84702" y="475.34851" rx=".30000001" ry=".30000001"/>
      <rect style="fill:#4d4d4d;stroke-width:1.07682" id="rect3707" width="24.996719" height=".98267198" x="223.84702" y="476.96848" rx=".30000001" ry=".30000001"/>
      <rect style="fill:#4d4d4d;stroke-width:1.07682" id="rect3709" width="24.996719" height=".98267198" x="223.89926" y="478.64066" rx=".30000001" ry=".30000001"/>
      <rect style="fill:#4d4d4d;stroke-width:1.07682" id="rect3711" width="24.996719" height=".98267198" x="223.89928" y="480.15613" rx=".30000001" ry=".30000001"/>
      <rect style="fill:#4d4d4d;stroke-width:1.07682" id="rect3713" width="24.996719" height=".98267198" x="223.92542" y="481.82834" rx=".30000001" ry=".30000001"/>
      <rect style="fill:#4d4d4d;stroke-width:1.07682" id="rect3715" width="24.996719" height=".98267198" x="223.92542" y="483.39606" rx=".30000001" ry=".30000001"/>
      <rect style="fill:#4d4d4d;stroke-width:1.07682" id="rect3717" width="24.996719" height=".98267198" x="223.92542" y="485.01602" rx=".30000001" ry=".30000001"/>
      <rect style="fill:#4d4d4d;stroke-width:1.07682" id="rect3719" width="24.996719" height=".98267198" x="223.97766" y="486.63596" rx=".30000001" ry=".30000001"/>
      <rect style="fill:#4d4d4d;stroke-width:1.07682" id="rect3721" width="24.996719" height=".98267198" x="223.87317" y="488.20367" rx=".30000001" ry=".30000001"/>
      <rect style="fill:#4d4d4d;stroke-width:1.07682" id="rect3723" width="24.996719" height=".98267198" x="224.00378" y="489.77139" rx=".30000001" ry=".30000001"/>
      <rect style="fill:#4d4d4d;stroke-width:1.07682" id="rect3725" width="24.996719" height=".98267198" x="224.00378" y="491.39136" rx=".30000001" ry=".30000001"/>
      <rect style="fill:#4d4d4d;stroke-width:1.07682" id="rect3727" width="24.996719" height=".98267198" x="224.05603" y="493.01129" rx=".30000001" ry=".30000001"/>
      <path style="display:inline;fill:red;stroke:#000;stroke-width:1;stroke-dasharray:none;stroke-opacity:1;paint-order:markers stroke fill" id="rect3667" d="M201.25661 459.32928h20.3945v35.64232h-20.3945z"/>
      <path style="display:inline;fill:#333;stroke:#000;stroke-width:.5;stroke-dasharray:none;stroke-opacity:1;paint-order:markers stroke fill" id="path3669" d="M203.96401 462.01245c-.0376.0244-1.05091.0294-1.08872.005-.0379-.0239-.54839-.99529-.54859-1.04362-.00019-.0483.50253-1.02466.54014-1.04901.0377-.0244 1.05092-.0294 1.08873-.005.0378.0239.54838.99529.54858 1.04361.0002.0483-.50252 1.02468-.54014 1.04902z"/>
      <path style="display:inline;fill:#333;stroke:#000;stroke-width:.500001;stroke-dasharray:none;stroke-opacity:1;paint-order:markers stroke fill" id="path3671" d="M220.56675 461.69923c-.0376.0218-1.05091.0263-1.08872.005-.0379-.0215-.54839-.8923-.54859-.93563-.00019-.0433.50253-.91863.54014-.94046.0377-.0218 1.05092-.0263 1.08873-.005.0378.0215.54838.89229.54858.93561.0002.0433-.50252.91864-.54014.94047z"/>
      <path style="display:inline;fill:#333;stroke:#000;stroke-width:.5;stroke-dasharray:none;stroke-opacity:1;paint-order:markers stroke fill" id="path3673" d="M220.31018 477.30216c-.0392.0229-1.09642.0276-1.13587.005-.0395-.0225-.57214-.93572-.57234-.98116-.0002-.0454.52429-.96334.56353-.98623.0393-.0229 1.09643-.0276 1.13588-.005.0394.0225.57213.93572.57234.98115.0002.0454-.52429.96335-.56354.98624z"/>
      <path style="display:inline;fill:#333;stroke:#000;stroke-width:.5;stroke-dasharray:none;stroke-opacity:1;paint-order:markers stroke fill" id="path3675" d="M220.4737 494.30882c-.0392.0229-1.09642.0276-1.13587.005-.0395-.0225-.57214-.93572-.57234-.98116-.0002-.0454.52429-.96334.56353-.98623.0393-.0229 1.09643-.0276 1.13588-.005.0394.0225.57213.93572.57234.98115.0002.0454-.52429.96335-.56354.98624z"/>
      <path style="display:inline;fill:#333;stroke:#000;stroke-width:.5;stroke-dasharray:none;stroke-opacity:1;paint-order:markers stroke fill" id="path3677" d="M203.71234 477.38392c-.0392.0229-1.09642.0276-1.13587.005-.0395-.0225-.57214-.93572-.57234-.98116-.0002-.0454.52429-.96334.56353-.98623.0393-.0229 1.09643-.0276 1.13588-.005.0394.0225.57213.93572.57234.98115.0002.0454-.52429.96335-.56354.98624z"/>
      <path style="display:inline;fill:#333;stroke:#000;stroke-width:.5;stroke-dasharray:none;stroke-opacity:1;paint-order:markers stroke fill" id="path3679" d="M203.30352 494.22705c-.0392.0229-1.09642.0276-1.13587.005-.0395-.0225-.57214-.93572-.57234-.98116-.0002-.0454.52429-.96334.56353-.98623.0393-.0229 1.09643-.0276 1.13588-.005.0394.0225.57213.93572.57234.98115.0002.0454-.52429.96335-.56354.98624z"/>
    </g>
    <g id="diffusion-pump-1" transform="translate(18.041292 -92.310183)">
      <path id="path1569" style="display:inline;fill:#333;stroke:#000;stroke-width:1.80917;stroke-dasharray:none;stroke-opacity:1;paint-order:markers stroke fill" d="M467.86263 363.85709v24.71405h-.14467c.0964 1.88.18904 3.75847.28542 5.17977.0964 1.42129.19296 2.38545.57866 3.49362.3857 1.10816 1.06273 2.36218 1.97838 3.39783.91565 1.03564 2.07208 1.85395 3.42112 2.67291 1.34903.81895 2.89167 1.63908 4.74656 2.60265 1.85489.96357 4.02112 2.07168 6.04463 3.05932 2.02352.98764 3.90356 1.85487 5.49334 3.01142 1.58977 1.15654 2.88906 2.59929 4.09361 3.75548 1.20455 1.1562 2.31178 2.02346 2.88938 3.32438.38044.85685.5229 1.8852.57475 2.74636-.008.0857-.0313.16797-.0313.25547v11.26008h-9.91147v-8.79474c0-.43117-.42611-.7792-.954-.7792h-17.34019c-.52789 0-.95009.34803-.95009.7792v23.28658c0 .43117.4222.7792.95009.7792h17.34019c.52789 0 .954-.34803.954-.7792v-4.38459h9.91147v6.77967c0 1.81163 1.78565 3.27009 4.00369 3.27009h32.20934c2.21805 0 4.00369-1.45846 4.00369-3.27009v-26.65247c.17348-.12902.16482-.32297.1564-.6323-.0236-.8667.0245-2.60146.60211-3.90238.5776-1.30092 1.68483-2.16818 2.88938-3.32438 1.20455-1.1562 2.50776-2.60214 4.09752-3.75868 1.58978-1.15655 3.46592-2.02378 5.48943-3.01141 2.02351-.98764 4.19366-2.09575 6.04854-3.05932 1.85489-.96357 3.39753-1.78052 4.74656-2.59946 1.34904-.81896 2.50547-1.64046 3.42112-2.67611.91565-1.03565 1.58878-2.28647 1.97448-3.39463.38569-1.10817.48225-2.07234.57865-3.49362.0964-1.4213.19293-3.29977.28933-5.17977h-.2776v-24.67573z" transform="matrix(.49954 0 0 .6116 45.157147 141.13509)"/>
    </g>
    <g id="diffusion-pump-2" transform="translate(18.041292 -92.310183)">
      <path id="rect1380" style="display:inline;fill:#333;stroke:#000;stroke-width:1;stroke-linecap:square;stroke-dasharray:none;stroke-opacity:1;paint-order:markers stroke fill" d="M404.08524 364.39335v24.7168h-.14453c.0964 1.88.19268 3.75839.28906 5.17968.0964 1.42129.19242 2.38402.57812 3.49219.3857 1.10816 1.06092 2.36084 1.97657 3.39649.91565 1.03565 2.07283 1.85487 3.42187 2.67382 1.34903.81895 2.88925 1.638 4.74414 2.60157 1.85489.96357 4.02337 2.07291 6.04688 3.06054 2.02351.98764 3.90241 1.85322 5.49218 3.00977 1.58977 1.15654 2.89116 2.60357 4.09571 3.75977 1.20455 1.15619 2.31302 2.0233 2.89062 3.32421.31995.72061.46818 1.56267.54102 2.32813v11.92969h-9.58789v-9.09571c0-.2637-.21286-.47461-.47657-.47461h-9.26562c-.2637 0-.47656.21091-.47656.47461v23.89258c0 .26371.21286.47656.47656.47656h9.26562c.26371 0 .47657-.21285.47657-.47656v-4.68555h9.58789v8.04883c0 1.108.892 2 2 2h36.21679c1.108 0 2-.892 2-2v-27.91601c.18088-.12887.16479-.32724.15625-.64063-.0236-.8667.0259-2.60142.60352-3.90234.5776-1.30092 1.68608-2.16802 2.89063-3.32422 1.20454-1.1562 2.50398-2.60127 4.09375-3.75781 1.58977-1.15655 3.46866-2.02408 5.49218-3.01172 2.02351-.98764 4.19199-2.09503 6.04688-3.0586 1.85489-.96356 3.39706-1.78261 4.74609-2.60156 1.34904-.81896 2.50427-1.63818 3.41992-2.67383.91565-1.03564 1.59087-2.28832 1.97657-3.39648.3857-1.10817.48172-2.0709.57812-3.49219.0964-1.4213.19266-3.30164.28906-5.18164h-.27734v-24.67578z" transform="translate(.03455891 -.51835043)"/>
    </g>
    <g id="detection-chamber" style="display:inline" transform="translate(18.041292 -92.310183)">
      <path style="display:inline;fill:#999;stroke:#000;stroke-width:.999901;stroke-linecap:square;stroke-linejoin:miter;stroke-dasharray:none;stroke-opacity:1;paint-order:markers stroke fill" id="rect274-3-9-0" d="M124.39795 229.65344h99.0001v99.0001h-99.0001z"/>
      <path style="display:inline;opacity:1;fill:gray;fill-opacity:1;stroke:#000;stroke-width:1;stroke-linecap:square;stroke-linejoin:miter;stroke-miterlimit:4;stroke-dasharray:none;stroke-opacity:1;paint-order:markers stroke fill" id="path15021" d="m3 4.9999997-5.8301268.098076-3-4.99999974L-3-4.9999997l5.8301268-.098076 3 4.99999974z" transform="translate(213.898 239.15349) scale(.78035)"/>
      <path style="display:inline;fill:gray;fill-opacity:1;stroke:#000;stroke-width:1;stroke-linecap:square;stroke-linejoin:miter;stroke-miterlimit:4;stroke-dasharray:none;stroke-opacity:1;paint-order:markers stroke fill" id="path15021-84" d="m3 4.9999997-5.8301268.098076-3-4.99999974L-3-4.9999997l5.8301268-.098076 3 4.99999974z" transform="translate(133.898 319.15349) scale(.78035)"/>
      <path style="display:inline;fill:gray;fill-opacity:1;stroke:#000;stroke-width:1;stroke-linecap:square;stroke-linejoin:miter;stroke-miterlimit:4;stroke-dasharray:none;stroke-opacity:1;paint-order:markers stroke fill" id="path15021-2" d="m3 4.9999997-5.8301268.098076-3-4.99999974L-3-4.9999997l5.8301268-.098076 3 4.99999974z" transform="translate(213.898 319.15349) scale(.78035)"/>
      <path style="display:inline;fill:gray;fill-opacity:1;stroke:#000;stroke-width:1;stroke-linecap:square;stroke-linejoin:miter;stroke-miterlimit:4;stroke-dasharray:none;stroke-opacity:1;paint-order:markers stroke fill" id="path15021-8" d="m3 4.9999997-5.8301268.098076-3-4.99999974L-3-4.9999997l5.8301268-.098076 3 4.99999974z" transform="translate(133.898 239.15349) scale(.78035)"/>
    </g>
    <g id="doping-chamber" style="display:inline" transform="translate(18.041292 -92.310183)">
      <path style="display:inline;fill:#999;stroke:#000;stroke-width:1.00001;stroke-linecap:square;stroke-linejoin:miter;stroke-dasharray:none;stroke-opacity:1;paint-order:markers stroke fill" id="rect274-3-9" d="M249.39799 224.65349H358.398v108.99999H249.39799Z"/>
      <path style="display:inline;fill:gray;fill-opacity:1;stroke:#000;stroke-width:1;stroke-linecap:square;stroke-linejoin:miter;stroke-miterlimit:4;stroke-dasharray:none;stroke-opacity:1;paint-order:markers stroke fill" id="path15021-1" d="m3 4.9999997-5.8301268.098076-3-4.99999974L-3-4.9999997l5.8301268-.098076 3 4.99999974z" transform="translate(258.898 324.15349) scale(.78035)"/>
      <path style="display:inline;fill:gray;fill-opacity:1;stroke:#000;stroke-width:1;stroke-linecap:square;stroke-linejoin:miter;stroke-miterlimit:4;stroke-dasharray:none;stroke-opacity:1;paint-order:markers stroke fill" id="path15021-7" d="m3 4.9999997-5.8301268.098076-3-4.99999974L-3-4.9999997l5.8301268-.098076 3 4.99999974z" transform="translate(258.898 234.15349) scale(.78035)"/>
      <path style="display:inline;fill:gray;fill-opacity:1;stroke:#000;stroke-width:1;stroke-linecap:square;stroke-linejoin:miter;stroke-miterlimit:4;stroke-dasharray:none;stroke-opacity:1;paint-order:markers stroke fill" id="path15021-89" d="m3 4.9999997-5.8301268.098076-3-4.99999974L-3-4.9999997l5.8301268-.098076 3 4.99999974z" transform="translate(348.898 234.15349) scale(.78035)"/>
      <path style="display:inline;fill:gray;fill-opacity:1;stroke:#000;stroke-width:1;stroke-linecap:square;stroke-linejoin:miter;stroke-miterlimit:4;stroke-dasharray:none;stroke-opacity:1;paint-order:markers stroke fill" id="path15021-3" d="m3 4.9999997-5.8301268.098076-3-4.99999974L-3-4.9999997l5.8301268-.098076 3 4.99999974z" transform="translate(348.898 324.15349) scale(.78035)"/>
    </g>
    <g id="source-chamber" style="display:inline" transform="translate(18.041292 -92.310183)">
      <path style="display:inline;fill:#999;stroke:#000;stroke-width:1.00012;stroke-linecap:square;stroke-linejoin:miter;stroke-dasharray:none;stroke-opacity:1;paint-order:markers stroke fill" id="rect274-3-9-7" d="M384.39807 194.65355h138.99988v168.99988H384.39807Z"/>
      <path style="display:inline;fill:gray;fill-opacity:1;stroke:#000;stroke-width:.78035;stroke-linecap:square;stroke-linejoin:miter;stroke-miterlimit:4;stroke-dasharray:none;stroke-opacity:1;paint-order:markers stroke fill" id="path15021-17" d="m396.23905 208.05524-4.54954.0765-2.34105-3.90175 2.20849-3.97828 4.54954-.0765 2.34105 3.90175z"/>
      <path style="display:inline;fill:gray;fill-opacity:1;stroke:#000;stroke-width:.78035;stroke-linecap:square;stroke-linejoin:miter;stroke-miterlimit:4;stroke-dasharray:none;stroke-opacity:1;paint-order:markers stroke fill" id="path15021-37" d="m516.23905 208.05524-4.54954.0765-2.34105-3.90175 2.20849-3.97828 4.54954-.0765 2.34105 3.90175z"/>
      <path style="display:inline;fill:gray;fill-opacity:1;stroke:#000;stroke-width:.78035;stroke-linecap:square;stroke-linejoin:miter;stroke-miterlimit:4;stroke-dasharray:none;stroke-opacity:1;paint-order:markers stroke fill" id="path15021-70" d="m516.23905 358.05524-4.54954.0765-2.34105-3.90175 2.20849-3.97828 4.54954-.0765 2.34105 3.90175z"/>
      <path style="display:inline;fill:gray;fill-opacity:1;stroke:#000;stroke-width:.78035;stroke-linecap:square;stroke-linejoin:miter;stroke-miterlimit:4;stroke-dasharray:none;stroke-opacity:1;paint-order:markers stroke fill" id="path15021-82" d="m396.23905 358.05524-4.54954.0765-2.34105-3.90175 2.20849-3.97828 4.54954-.0765 2.34105 3.90175z"/>
    </g>
    <g id="ion-gauge-3" style="display:inline" transform="translate(283.0567 -127.5205)">
      <path style="fill:#999;fill-opacity:1;stroke:#000;stroke-opacity:1;paint-order:markers stroke fill" id="rect445" d="M133.93692 218.85104h10.07635v10.24154h-10.07635z"/>
      <path style="display:inline;fill:#333;fill-opacity:1;stroke:#000;stroke-width:1;stroke-dasharray:none;stroke-opacity:1;paint-order:markers stroke fill" id="rect447" d="M128.65096 189.15913h20.48308v29.6919h-20.48308z"/>
      <rect style="fill:#ffd42a;stroke-width:.884725" id="rect451" width="3.9607351" height="29.591976" x="128.65446" y="189.13141" rx=".30000001" ry=".30000001"/>
      <rect style="fill:#ffd42a;stroke-width:.889752" id="rect453" width="4.0478096" height="29.656029" x="145.16731" y="189.13141" rx=".30000001" ry=".30000001"/>
      <rect style="fill:#ffd42a" id="rect455" width="4.2387009" height="3.9075525" x="134.30017" y="204.79671" rx=".30000001" ry=".30000001"/>
      <rect style="display:inline;fill:#ffd42a" id="rect457" width="4.2387009" height="3.9075525" x="139.2674" y="204.82982" rx=".30000001" ry=".30000001"/>
      <rect style="display:inline;fill:#ffd42a" id="rect459" width="4.2387009" height="3.9075525" x="134.23395" y="209.59836" rx=".30000001" ry=".30000001"/>
      <rect style="display:inline;fill:#ffd42a" id="rect461" width="4.2387009" height="3.9075525" x="139.33363" y="209.59836" rx=".30000001" ry=".30000001"/>
      <rect style="fill:#000" id="rect463" width="8.742321" height="9.4046173" x="134.49886" y="191.55077" rx=".30000001" ry=".30000001"/>
      <path style="display:inline;fill:#000" id="path465" d="m76.154502 210.04994-1.171932-.74241 1.228914-.64372z" transform="translate(64.844561 -1.4086983)"/>
      <path style="display:inline;fill:none;fill-rule:evenodd;stroke:#000" id="path467" d="M74.566543 206.06313c.294473-1.06746 1.43273-1.7135 2.500193-1.41903 1.067463.29448 1.7135 1.43273 1.419028 2.5002-.294473 1.06746-1.432729 1.7135-2.500193 1.41902" transform="matrix(.7099 0 0 .61717 87.016129 79.259272)"/>
      <rect style="display:inline;fill:#000" id="rect469" width=".80376971" height="2.3558769" x="142.22397" y="210.24005" ry=".30000001" rx=".30000001"/>
      <rect style="display:inline;fill:#000" id="rect471" width="2.4944577" height=".97006691" x="140.50557" y="211.68129" rx=".30000001" ry=".30000001"/>
      <path style="display:inline;fill:#000" id="path473" d="m76.274978 213.38701-1.402848-.79761 1.39217-.8161Z" transform="matrix(.84194 0 0 1 76.480385 -.40305264)"/>
      <path style="display:inline;fill:#000" id="path475" d="m137.44644 206.88495-2.11325.009 1.04848-1.83483z"/>
      <rect style="display:inline;fill:#000" id="rect477" width="1.0088949" height="1.6646767" x="135.88264" y="206.73361" ry=".30000001" rx=".30000001"/>
      <path style="display:inline;fill:#000" id="path481" d="m137.396 211.41556-2.11325-.009 1.04847 1.83483z"/>
      <rect style="display:inline;fill:#000" id="rect483" width="1.0088949" height="1.6646767" x="135.8322" y="-211.56691" ry=".30000001" rx=".30000001" transform="scale(1 -1)"/>
    </g>
    <g id="ion-gauge-2" style="display:inline" transform="translate(133.53541 -97.269378)">
      <path style="fill:#999;fill-opacity:1;stroke:#000;stroke-opacity:1;paint-order:markers stroke fill" id="rect716" d="M133.93692 218.85104h10.07635v10.24154h-10.07635z"/>
      <path style="display:inline;fill:#333;fill-opacity:1;stroke:#000;stroke-width:1;stroke-dasharray:none;stroke-opacity:1;paint-order:markers stroke fill" id="rect718" d="M128.65096 189.15913h20.48308v29.6919h-20.48308z"/>
      <rect style="fill:#ffd42a;stroke-width:.884725" id="rect722" width="3.9607351" height="29.591976" x="128.65446" y="189.13141" rx=".30000001" ry=".30000001"/>
      <rect style="fill:#ffd42a;stroke-width:.889752" id="rect724" width="4.0478096" height="29.656029" x="145.16731" y="189.13141" rx=".30000001" ry=".30000001"/>
      <rect style="fill:#ffd42a" id="rect726" width="4.2387009" height="3.9075525" x="134.30017" y="204.79671" rx=".30000001" ry=".30000001"/>
      <rect style="display:inline;fill:#ffd42a" id="rect728" width="4.2387009" height="3.9075525" x="139.2674" y="204.82982" rx=".30000001" ry=".30000001"/>
      <rect style="display:inline;fill:#ffd42a" id="rect730" width="4.2387009" height="3.9075525" x="134.23395" y="209.59836" rx=".30000001" ry=".30000001"/>
      <rect style="display:inline;fill:#ffd42a" id="rect732" width="4.2387009" height="3.9075525" x="139.33363" y="209.59836" rx=".30000001" ry=".30000001"/>
      <rect style="fill:#000" id="rect734" width="8.742321" height="9.4046173" x="134.49886" y="191.55077" rx=".30000001" ry=".30000001"/>
      <path style="display:inline;fill:#000" id="path736" d="m76.154502 210.04994-1.171932-.74241 1.228914-.64372z" transform="translate(64.844561 -1.4086983)"/>
      <path style="display:inline;fill:none;fill-rule:evenodd;stroke:#000" id="path738" d="M74.566543 206.06313c.294473-1.06746 1.43273-1.7135 2.500193-1.41903 1.067463.29448 1.7135 1.43273 1.419028 2.5002-.294473 1.06746-1.432729 1.7135-2.500193 1.41902" transform="matrix(.7099 0 0 .61717 87.016129 79.259272)"/>
      <rect style="display:inline;fill:#000" id="rect740" width=".80376971" height="2.3558769" x="142.22397" y="210.24005" ry=".30000001" rx=".30000001"/>
      <rect style="display:inline;fill:#000" id="rect742" width="2.4944577" height=".97006691" x="140.50557" y="211.68129" rx=".30000001" ry=".30000001"/>
      <path style="display:inline;fill:#000" id="path744" d="m76.274978 213.38701-1.402848-.79761 1.39217-.8161Z" transform="matrix(.84194 0 0 1 76.480385 -.40305264)"/>
      <path style="display:inline;fill:#000" id="path746" d="m137.44644 206.88495-2.11325.009 1.04848-1.83483z"/>
      <rect style="display:inline;fill:#000" id="rect748" width="1.0088949" height="1.6646767" x="135.88264" y="206.73361" ry=".30000001" rx=".30000001"/>
      <path style="display:inline;fill:#000" id="path752" d="m137.396 211.41556-2.11325-.009 1.04847 1.83483z"/>
      <rect style="display:inline;fill:#000" id="rect754" width="1.0088949" height="1.6646767" x="135.8322" y="-211.56691" ry=".30000001" rx=".30000001" transform="scale(1 -1)"/>
    </g>
    <g id="ion-gauge-1" style="display:inline" transform="translate(17.879312 -92.380823)">
      <path style="fill:#999;fill-opacity:1;stroke:#000;stroke-opacity:1;paint-order:markers stroke fill" id="rect766" d="M133.93692 218.85104h10.07635v10.24154h-10.07635z"/>
      <path style="display:inline;fill:#333;fill-opacity:1;stroke:#000;stroke-width:1;stroke-dasharray:none;stroke-opacity:1;paint-order:markers stroke fill" id="rect768" d="M128.65096 189.15913h20.48308v29.6919h-20.48308z"/>
      <rect style="fill:#ffd42a;stroke-width:.884725" id="rect772" width="3.9607351" height="29.591976" x="128.65446" y="189.13141" rx=".30000001" ry=".30000001"/>
      <rect style="fill:#ffd42a;stroke-width:.889752" id="rect774" width="4.0478096" height="29.656029" x="145.16731" y="189.13141" rx=".30000001" ry=".30000001"/>
      <rect style="fill:#ffd42a" id="rect776" width="4.2387009" height="3.9075525" x="134.30017" y="204.79671" rx=".30000001" ry=".30000001"/>
      <rect style="display:inline;fill:#ffd42a" id="rect778" width="4.2387009" height="3.9075525" x="139.2674" y="204.82982" rx=".30000001" ry=".30000001"/>
      <rect style="display:inline;fill:#ffd42a" id="rect780" width="4.2387009" height="3.9075525" x="134.23395" y="209.59836" rx=".30000001" ry=".30000001"/>
      <rect style="display:inline;fill:#ffd42a" id="rect782" width="4.2387009" height="3.9075525" x="139.33363" y="209.59836" rx=".30000001" ry=".30000001"/>
      <rect style="fill:#000" id="rect784" width="8.742321" height="9.4046173" x="134.49886" y="191.55077" rx=".30000001" ry=".30000001"/>
      <path style="display:inline;fill:#000" id="path786" d="m76.154502 210.04994-1.171932-.74241 1.228914-.64372z" transform="translate(64.844561 -1.4086983)"/>
      <path style="display:inline;fill:none;fill-rule:evenodd;stroke:#000" id="path788" d="M74.566543 206.06313c.294473-1.06746 1.43273-1.7135 2.500193-1.41903 1.067463.29448 1.7135 1.43273 1.419028 2.5002-.294473 1.06746-1.432729 1.7135-2.500193 1.41902" transform="matrix(.7099 0 0 .61717 87.016129 79.259272)"/>
      <rect style="display:inline;fill:#000" id="rect790" width=".80376971" height="2.3558769" x="142.22397" y="210.24005" ry=".30000001" rx=".30000001"/>
      <rect style="display:inline;fill:#000" id="rect792" width="2.4944577" height=".97006691" x="140.50557" y="211.68129" rx=".30000001" ry=".30000001"/>
      <path style="display:inline;fill:#000" id="path794" d="m76.274978 213.38701-1.402848-.79761 1.39217-.8161Z" transform="matrix(.84194 0 0 1 76.480385 -.40305264)"/>
      <path style="display:inline;fill:#000" id="path796" d="m137.44644 206.88495-2.11325.009 1.04848-1.83483z"/>
      <rect style="display:inline;fill:#000" id="rect798" width="1.0088949" height="1.6646767" x="135.88264" y="206.73361" ry=".30000001" rx=".30000001"/>
      <path style="display:inline;fill:#000" id="path802" d="m137.396 211.41556-2.11325-.009 1.04847 1.83483z"/>
      <rect style="display:inline;fill:#000" id="rect804" width="1.0088949" height="1.6646767" x="135.8322" y="-211.56691" ry=".30000001" rx=".30000001" transform="scale(1 -1)"/>
    </g>
    <g id="turbo-pump" transform="translate(18.041292 -92.310183)">
      <path id="rect2080" style="fill:#333;stroke:#000;stroke-opacity:1;paint-order:markers stroke fill" d="M143.63594 364.25983v19.9336h-13.75v-.98633h-3.31641v12.51172h3.31641v-.94532h13.75v4.29493h59.95508v-34.8086z" transform="translate(.36210735 -.26764479)"/>
    </g>
    <g id="lecture" transform="translate(18.041292 -92.310183)">
      <ellipse style="fill:maroon;stroke-width:.697593" id="path836" cx="32.56144" cy="471.54736" rx="15.57327" ry="4.2389007"/>
      <path style="fill:maroon;stroke-width:.694687" id="rect937" d="M17.938551 410.38223h29.224394v61.76683H17.938551Z"/>
      <path style="fill:#4d4d4d;stroke-width:.694687" id="rect1303" d="M29.343193 380.40717h6.890304v19.68061h-6.890304z"/>
      <ellipse style="fill:maroon;stroke-width:.718186" id="path1017" cx="32.540062" cy="411.20291" rx="14.601511" ry="13.927815"/>
      <path style="fill:#4d4d4d" id="path1413" d="m50.578401 355.2071-15.884021.24118-5.137808-15.03207 12.708682-9.53151 12.992205 9.14127z" transform="matrix(.61538 0 0 .31266 6.53391 270.67189)"/>
      <path style="fill:#4d4d4d" id="rect1415" d="M24.830967 386.51614h15.784025v3.2723H24.830967Z"/>
      <path style="fill:#666;stroke-width:.999996" id="rect1697" d="M19.780813 413.44748h25.617868v57.02042H19.780813Z"/>
    </g>
  </g>
</svg>
