<svg viewBox="0 0 300.00005 300" version="1.1" id="svg23100" xmlns="http://www.w3.org/2000/svg">
  <g id="chamber" style="display:inline" transform="matrix(2.72727 0 0 2.72727 -678.81268 -611.32768)">
    <path style="display:inline;fill:#999;stroke:#000;stroke-width:1.00001;stroke-linecap:square;stroke-linejoin:miter;stroke-dasharray:none;stroke-opacity:1;paint-order:markers stroke fill" id="rect274-3-9" d="M249.39799 224.65349H358.398v108.99999H249.39799Z"/>
    <path id="path15021-1" style="display:inline;fill:gray;fill-opacity:1;stroke:#000;stroke-width:1;stroke-linecap:square;stroke-linejoin:miter;stroke-miterlimit:4;stroke-dasharray:none;stroke-opacity:1;paint-order:markers stroke fill" d="m2.8305751-120.43049-5.8302999.0973-2.8302605 5.09887 3.0000394 4.99976 5.8302999-.0982 2.8293428-5.09795zm115.3321949 0-5.8303.0973-2.82934 5.09887 3.00004 4.99976 5.82938-.0982 2.83026-5.09795zM2.8305751-5.0982951l-5.8302999.098196L-5.8299853.0978571l3.0000394 4.9997598 5.8302999-.097279L5.8296968-.09761829zm115.3321949 0-5.8303.098196-2.82934 5.0979562 3.00004 4.9997598 5.82938-.097279 2.83026-5.09795619z" transform="translate(258.898 324.15349) scale(.78035)"/>
  </g>
</svg>
