<svg width="110.00002" height="110" version="1.1" id="svg23100" xmlns="http://www.w3.org/2000/svg">
  <g id="doping-chamber" style="display:inline" transform="translate(-248.89798 -224.15348)">
    <path style="display:inline;fill:#999;stroke:#000;stroke-width:1.00001;stroke-linecap:square;stroke-linejoin:miter;stroke-dasharray:none;stroke-opacity:1;paint-order:markers stroke fill" id="rect274-3-9" d="M249.39799 224.65349H358.398v108.99999H249.39799Z"/>
    <path style="display:inline;fill:gray;fill-opacity:1;stroke:#000;stroke-width:1;stroke-linecap:square;stroke-linejoin:miter;stroke-miterlimit:4;stroke-dasharray:none;stroke-opacity:1;paint-order:markers stroke fill" id="path15021-1" d="m3 4.9999997-5.8301268.098076-3-4.99999974L-3-4.9999997l5.8301268-.098076 3 4.99999974z" transform="translate(258.898 324.15349) scale(.78035)"/>
    <path style="display:inline;fill:gray;fill-opacity:1;stroke:#000;stroke-width:1;stroke-linecap:square;stroke-linejoin:miter;stroke-miterlimit:4;stroke-dasharray:none;stroke-opacity:1;paint-order:markers stroke fill" id="path15021-7" d="m3 4.9999997-5.8301268.098076-3-4.99999974L-3-4.9999997l5.8301268-.098076 3 4.99999974z" transform="translate(258.898 234.15349) scale(.78035)"/>
    <path style="display:inline;fill:gray;fill-opacity:1;stroke:#000;stroke-width:1;stroke-linecap:square;stroke-linejoin:miter;stroke-miterlimit:4;stroke-dasharray:none;stroke-opacity:1;paint-order:markers stroke fill" id="path15021-89" d="m3 4.9999997-5.8301268.098076-3-4.99999974L-3-4.9999997l5.8301268-.098076 3 4.99999974z" transform="translate(348.898 234.15349) scale(.78035)"/>
    <path style="display:inline;fill:gray;fill-opacity:1;stroke:#000;stroke-width:1;stroke-linecap:square;stroke-linejoin:miter;stroke-miterlimit:4;stroke-dasharray:none;stroke-opacity:1;paint-order:markers stroke fill" id="path15021-3" d="m3 4.9999997-5.8301268.098076-3-4.99999974L-3-4.9999997l5.8301268-.098076 3 4.99999974z" transform="translate(348.898 324.15349) scale(.78035)"/>
  </g>
</svg>
