<svg width="40.93528" height="47.059559" version="1.1" id="svg5" xmlns:xlink="http://www.w3.org/1999/xlink" xmlns="http://www.w3.org/2000/svg">
  <defs id="defs2">
    <linearGradient id="linearGradient80315">
      <stop style="stop-color:#8d8d8d;stop-opacity:1" offset="0" id="stop80311"/>
      <stop style="stop-color:#989898;stop-opacity:1" offset=".2" id="stop80319"/>
      <stop style="stop-color:#4a4a4a;stop-opacity:1" offset=".40000001" id="stop80321"/>
      <stop style="stop-color:#828282;stop-opacity:1" offset=".60000002" id="stop80323"/>
      <stop style="stop-color:#4b4b4b;stop-opacity:1" offset=".80000001" id="stop80325"/>
      <stop style="stop-color:#cacaca;stop-opacity:1" offset="1" id="stop80313"/>
    </linearGradient>
    <linearGradient id="linearGradient34313">
      <stop style="stop-color:#949494;stop-opacity:1" offset="0" id="stop34309"/>
      <stop style="stop-color:#5b5b5b;stop-opacity:1" offset=".1977492" id="stop34317"/>
      <stop style="stop-color:#8d8d8d;stop-opacity:1" offset=".39630225" id="stop34319"/>
      <stop style="stop-color:#848484;stop-opacity:1" offset=".60000002" id="stop34321"/>
      <stop style="stop-color:#9c9c9c;stop-opacity:1" offset=".80000001" id="stop34323"/>
      <stop style="stop-color:#a0a0a0;stop-opacity:1" offset="1" id="stop34311"/>
    </linearGradient>
    <linearGradient id="linearGradient28435">
      <stop style="stop-color:#8c8c8c;stop-opacity:1" offset="0" id="stop28431"/>
      <stop style="stop-color:gray;stop-opacity:1" offset=".2" id="stop28439"/>
      <stop style="stop-color:#5a5a5a;stop-opacity:1" offset=".40000001" id="stop28441"/>
      <stop style="stop-color:#a7a7a7;stop-opacity:1" offset=".60000002" id="stop28443"/>
      <stop style="stop-color:#626262;stop-opacity:1" offset=".80000001" id="stop28445"/>
      <stop style="stop-color:#cdcdcd;stop-opacity:1" offset="1" id="stop28433"/>
    </linearGradient>
    <linearGradient id="linearGradient27759">
      <stop style="stop-color:#5f5f5f;stop-opacity:1" offset="0" id="stop27755"/>
      <stop style="stop-color:gray;stop-opacity:1" offset=".20418006" id="stop27763"/>
      <stop style="stop-color:#737373;stop-opacity:1" offset=".40000001" id="stop27765"/>
      <stop style="stop-color:#787878;stop-opacity:1" offset=".59847265" id="stop27767"/>
      <stop style="stop-color:#bdbdbd;stop-opacity:1" offset=".79923636" id="stop27769"/>
      <stop style="stop-color:#848484;stop-opacity:1" offset="1" id="stop27757"/>
    </linearGradient>
    <linearGradient id="linearGradient27656">
      <stop style="stop-color:#676767;stop-opacity:1" offset="0" id="stop27652"/>
      <stop style="stop-color:#949494;stop-opacity:1" offset=".20418006" id="stop27747"/>
      <stop style="stop-color:#737373;stop-opacity:1" offset=".40273312" id="stop27749"/>
      <stop style="stop-color:#a7a7a7;stop-opacity:1" offset=".59847265" id="stop27751"/>
      <stop style="stop-color:silver;stop-opacity:1" offset=".79602093" id="stop27753"/>
      <stop style="stop-color:#c8c8c8;stop-opacity:1" offset="1" id="stop27654"/>
    </linearGradient>
    <linearGradient xlink:href="#linearGradient27656" id="linearGradient27658" x1="29.185118" y1="38.91349" x2="53.408768" y2="38.91349" gradientUnits="userSpaceOnUse" gradientTransform="matrix(1 0 0 1.0616 -.87555354 -1.2330073)"/>
    <linearGradient xlink:href="#linearGradient27759" id="linearGradient27761" x1="30.449806" y1="25.877472" x2="52.338646" y2="25.877472" gradientUnits="userSpaceOnUse" gradientTransform="matrix(1 0 0 1.0616 -.87555354 -1.2330073)"/>
    <linearGradient xlink:href="#linearGradient28435" id="linearGradient28437" x1="70.97747" y1="-30.953432" x2="70.97747" y2="-49.774933" gradientUnits="userSpaceOnUse"/>
    <linearGradient xlink:href="#linearGradient34313" id="linearGradient34315" x1="52.496113" y1="41.15786" x2="52.269348" y2="53.063026" gradientUnits="userSpaceOnUse"/>
    <linearGradient xlink:href="#linearGradient28435" id="linearGradient40247" gradientUnits="userSpaceOnUse" x1="70.97747" y1="-30.953432" x2="70.97747" y2="-49.774933" gradientTransform="matrix(1 0 0 .78325 -30.57062 94.372136)"/>
    <linearGradient xlink:href="#linearGradient34313" id="linearGradient41703" gradientUnits="userSpaceOnUse" x1="52.496113" y1="41.15786" x2="52.269348" y2="53.063026" gradientTransform="matrix(.66204 0 0 .54251 5.6829422 37.430946)"/>
    <linearGradient xlink:href="#linearGradient28435" id="linearGradient44613" gradientUnits="userSpaceOnUse" x1="70.97747" y1="-30.953432" x2="70.97747" y2="-49.774933" gradientTransform="matrix(1 0 0 .10843 -17.687676 -50.172468)"/>
    <linearGradient xlink:href="#linearGradient28435" id="linearGradient44617" gradientUnits="userSpaceOnUse" gradientTransform="matrix(1 0 0 .13253 -17.687676 -44.440498)" x1="70.97747" y1="-30.953432" x2="70.97747" y2="-49.774933"/>
    <linearGradient xlink:href="#linearGradient28435" id="linearGradient47525" gradientUnits="userSpaceOnUse" gradientTransform="matrix(1.00027 0 0 .10765 -116.25788 -55.552797)" x1="70.97747" y1="-30.953432" x2="70.97747" y2="-49.774933"/>
    <linearGradient xlink:href="#linearGradient80315" id="linearGradient80317" x1="71.771149" y1="65.648491" x2="93.540596" y2="48.300961" gradientUnits="userSpaceOnUse" gradientTransform="translate(-25.851218 -.90706025)"/>
    <linearGradient xlink:href="#linearGradient28435" id="linearGradient82507" gradientUnits="userSpaceOnUse" x1="70.97747" y1="-30.953432" x2="70.97747" y2="-49.774933" gradientTransform="matrix(1 0 0 .3797 -23.812421 -48.222592)"/>
  </defs>
  <g id="diffusion-pump" transform="translate(-27.57305 -25.051731)">
    <path id="rect69362" style="fill:url(#linearGradient80317);fill-opacity:1;fill-rule:nonzero;stroke:none;stroke-width:.25223;stroke-linecap:square;stroke-opacity:1;paint-order:markers stroke fill" d="m62.38539 47.197873-.0124 9.280054a3.4913622 5.3476004 46.207849 0 0-1.855183 1.426786 3.4913622 5.3476004 46.207849 0 0-.93276 1.167371h-13.77849v5.669421h16.554028v-.185001a3.4913622 5.3476004 46.207849 0 0 3.429765-2.048971 3.4913622 5.3476004 46.207849 0 0 1.739429-2.899048h.02119v-.07596a3.4913622 5.3476004 46.207849 0 0 .0031-2.11615l.01344-10.197827z"/>
    <path style="fill:#ccc;stroke:#000;stroke-width:.178183;stroke-linecap:square;stroke-opacity:1;paint-order:markers stroke fill" id="rect82511" transform="matrix(.00634 .99998 -.99835 -.05745 0 0)" d="M56.050301-51.344398h6.1368704v.44659317H56.050301z"/>
    <path style="fill:#ccc;stroke:#000;stroke-width:.194659;stroke-linecap:square;stroke-opacity:1;paint-order:markers stroke fill" id="rect2464" transform="matrix(.00495 .99999 -.9973 -.07356 0 0)" d="M53.732357-50.230824h7.58641v.43116269h-7.58641z"/>
    <path style="fill:#ccc;stroke:#000;stroke-width:.169764;stroke-linecap:square;stroke-opacity:1;paint-order:markers stroke fill" id="rect83965" transform="matrix(.00725 .99997 -.99874 -.05027 0 0)" d="M56.227524-52.751907h5.4692898v.45487401H56.227524z"/>
    <path style="fill:#ccc;stroke:#000;stroke-width:.182233;stroke-linecap:square;stroke-opacity:1;paint-order:markers stroke fill" id="rect83967" transform="matrix(.00596 .99998 -.99813 -.06108 0 0)" d="M55.444294-54.559258h6.4714866v.44298175H55.444294z"/>
    <path style="fill:gray;fill-opacity:1;fill-rule:nonzero;stroke:#000;stroke-width:.300567;stroke-linecap:square;stroke-opacity:1;paint-order:markers stroke fill" d="m53.856702 54.310233-.340146 4.195154-.45353 2.947944-1.473974 5.328982-2.040886 4.421918-.113382.680294h2.040885l1.927505-5.555742 1.247206-4.308539.566913-7.936777z" id="path51321"/>
    <path style="fill:url(#linearGradient44613);fill-opacity:1;fill-rule:nonzero;stroke:none;stroke-width:.111842;stroke-linecap:square;paint-order:markers stroke fill" id="rect44611" transform="rotate(90)" d="M52.836254-55.557449h1.5873555v2.0408854H52.836254z"/>
    <path style="fill:url(#linearGradient44617);fill-opacity:1;fill-rule:nonzero;stroke:none;stroke-width:.123646;stroke-linecap:square;paint-order:markers stroke fill" id="rect44615" transform="rotate(90)" d="M52.836258-51.022148h1.5873555v2.4944155H52.836258z"/>
    <path id="rect19540" style="fill:url(#linearGradient27658);fill-opacity:1;stroke:none;stroke-width:.368817;stroke-linecap:square;paint-order:markers stroke fill" d="M31.541589 26.150202v3.20984a3.747129 11.332533 0 0 0-3.137276 11.175465 3.747129 11.332533 0 0 0 3.137276 11.175465v20.231702h17.777209V51.667085a3.747129 11.332533 0 0 0 3.049943-11.131578 3.747129 11.332533 0 0 0-3.049943-11.133772v-3.251533z"/>
    <path style="fill:url(#linearGradient27761);fill-opacity:1;stroke:#000;stroke-width:.364495;stroke-linecap:square;stroke-opacity:1;paint-order:markers stroke fill" id="rect26133" d="M29.503571 25.233978h21.835644v2.2156091H29.503571z"/>
    <path style="fill:gray;fill-opacity:1;fill-rule:nonzero;stroke:#000;stroke-width:.300567;stroke-linecap:square;stroke-opacity:1;paint-order:markers stroke fill" d="M44.672719 62.020247h2.381033l2.381033-1.020442 1.133825-2.15427.226766-2.267651v-2.381033h-1.020442v2.381033l-.113385 1.927503-.680294 1.473975-1.814121 1.020441-2.607799.113382z" id="path49033"/>
    <path style="fill:url(#linearGradient47525);fill-opacity:1;fill-rule:nonzero;stroke:none;stroke-width:.111451;stroke-linecap:square;paint-order:markers stroke fill" id="rect47523" transform="matrix(-.99943 -.03385 .01792 -.99984 0 0)" d="M-45.714909-60.898796h1.5877839v2.0261121h-1.5877839z"/>
    <path style="fill:#ccc;stroke:#000;stroke-width:.236196;stroke-linecap:square;stroke-opacity:1;paint-order:markers stroke fill" id="rect30750" transform="matrix(.99262 -.1213 .03972 .99921 0 0)" d="M28.714226 34.140778h11.932707v.40358186H28.714226z"/>
    <path style="fill:#ccc;stroke:#000;stroke-width:.317292;stroke-linecap:square;stroke-opacity:1;paint-order:markers stroke fill" id="rect32204" transform="matrix(.99813 -.06119 .07898 .99688 0 0)" d="M26.25959 34.217529h22.542397v.38551587H26.25959z"/>
    <path style="fill:#ccc;stroke:#000;stroke-width:.327064;stroke-linecap:square;stroke-opacity:1;paint-order:markers stroke fill" id="rect32208" transform="matrix(.99838 -.05694 .08486 .9964 0 0)" d="M25.205631 36.20686h24.083002v.38342395H25.205631z"/>
    <path style="fill:#ccc;stroke:#000;stroke-width:.331228;stroke-linecap:square;stroke-opacity:1;paint-order:markers stroke fill" id="rect32210" transform="matrix(.99847 -.05525 .08744 .99617 0 0)" d="M24.514698 38.574078h24.757265v.38253981H24.514698z"/>
    <path style="fill:#ccc;stroke:#000;stroke-width:.332994;stroke-linecap:square;stroke-opacity:1;paint-order:markers stroke fill" id="rect32212" transform="matrix(.99851 -.05455 .08856 .99607 0 0)" d="M24.178028 40.788124h25.046288v.38216665H24.178028z"/>
    <path style="fill:#ccc;stroke:#000;stroke-width:.332407;stroke-linecap:square;stroke-opacity:1;paint-order:markers stroke fill" id="rect32214" transform="matrix(.9985 -.05478 .08819 .9961 0 0)" d="M23.98667 43.125965h24.949945v.38229072H23.98667z"/>
    <path style="fill:#ccc;stroke:#000;stroke-width:.330045;stroke-linecap:square;stroke-opacity:1;paint-order:markers stroke fill" id="rect38847" transform="matrix(.99845 -.05572 .0867 .99623 0 0)" d="M24.03166 45.587467h24.564608v.38279065H24.03166z"/>
    <path style="fill:#ccc;stroke:#000;stroke-width:.323442;stroke-linecap:square;stroke-opacity:1;paint-order:markers stroke fill" id="rect38849" transform="matrix(.99829 -.05846 .08265 .99658 0 0)" d="M24.786602 48.12463h23.505177v.38419652H24.786602z"/>
    <path style="fill:#ccc;stroke:#000;stroke-width:.310997;stroke-linecap:square;stroke-opacity:1;paint-order:markers stroke fill" id="rect38851" transform="matrix(.99794 -.06416 .07533 .99716 0 0)" d="M26.216167 50.675476h21.580294v.38688469H26.216167z"/>
    <path style="fill:#ccc;stroke:#000;stroke-width:.298029;stroke-linecap:square;stroke-opacity:1;paint-order:markers stroke fill" id="rect11715" transform="rotate(-4.067757) skewX(-.160736)" d="M27.32892 53.364182h19.673235v.38973251H27.32892z"/>
    <path style="fill:#ccc;stroke:#000;stroke-width:.289694;stroke-linecap:square;stroke-opacity:1;paint-order:markers stroke fill" id="rect2397" transform="matrix(.99712 -.0758 .06377 .99796 0 0)" d="M27.764338 55.645775h18.502739v.3915318H27.764338z"/>
    <path style="fill:#ccc;stroke:#000;stroke-width:.292465;stroke-linecap:square;stroke-opacity:1;paint-order:markers stroke fill" id="rect2453" transform="matrix(.99725 -.07413 .0652 .99787 0 0)" d="M27.332542 58.009003h18.887455v.39093077H27.332542z"/>
    <path style="fill:url(#linearGradient28437);fill-opacity:1;fill-rule:nonzero;stroke:none;stroke-width:.339644;stroke-linecap:square;paint-order:markers stroke fill" id="rect25515" transform="rotate(90)" d="M70.523933-49.661556h1.5873555v18.821501H70.523933z"/>
    <path style="fill:url(#linearGradient34315);fill-opacity:1;fill-rule:nonzero;stroke:#000;stroke-width:.27264;stroke-linecap:square;stroke-opacity:1;paint-order:markers stroke fill" id="rect31403" d="M47.507286 41.044476h9.0706024v11.905166H47.507286z"/>
    <path style="fill:#000;fill-opacity:1;fill-rule:nonzero;stroke:#000;stroke-width:.165877;stroke-linecap:square;stroke-opacity:1;paint-order:markers stroke fill" id="rect35777" d="M52.088619 40.977127h.24807273v12.153239H52.088619z"/>
    <ellipse style="fill:none;fill-opacity:1;fill-rule:nonzero;stroke:#000;stroke-width:.185562;stroke-linecap:square;stroke-opacity:1;paint-order:markers stroke fill" id="path37335" cx="49.831623" cy="46.77029" rx="1.8149319" ry="2.0416968"/>
    <circle style="fill:none;fill-opacity:1;fill-rule:nonzero;stroke:#000;stroke-width:.300567;stroke-linecap:square;stroke-opacity:1;paint-order:markers stroke fill" id="path37337" cx="49.945" cy="42.575142" r="1.077134"/>
    <circle style="fill:none;fill-opacity:1;fill-rule:nonzero;stroke:#000;stroke-width:.300567;stroke-linecap:square;stroke-opacity:1;paint-order:markers stroke fill" id="circle37339" cx="49.945" cy="50.852066" r="1.077134"/>
    <path style="fill:url(#linearGradient40247);fill-opacity:1;fill-rule:nonzero;stroke:none;stroke-width:.300589;stroke-linecap:square;paint-order:markers stroke fill" id="rect40245" transform="rotate(.2769233) skewX(-.1745)" d="M39.952797 55.474697h1.5873438v14.741951H39.952797z"/>
    <path style="fill:url(#linearGradient41703);fill-opacity:1;fill-rule:nonzero;stroke:#000;stroke-width:.163394;stroke-linecap:square;stroke-opacity:1;paint-order:markers stroke fill" id="rect41701" d="M37.13485 59.697968h6.005137v6.4586673H37.13485z"/>
    <circle style="fill:none;fill-opacity:1;fill-rule:nonzero;stroke:#000;stroke-width:.300567;stroke-linecap:square;stroke-opacity:1;paint-order:markers stroke fill" id="path43157" cx="40.194107" cy="63.097378" r="1.6440468"/>
    <path style="fill:gray;fill-opacity:1;fill-rule:nonzero;stroke:#000;stroke-width:.300567;stroke-linecap:square;stroke-opacity:1;paint-order:markers stroke fill" id="path54354" d="m18.254589 65.875255-3.728322.334987-2.154268-3.061329 1.574054-3.396315 3.728322-.334986 2.154268 3.061328z" transform="matrix(.2595 .02694 -.02603 .29628 34.509883 51.369607)"/>
    <path style="fill:gray;fill-opacity:1;fill-rule:nonzero;stroke:#000;stroke-width:.300567;stroke-linecap:square;stroke-opacity:1;paint-order:markers stroke fill" id="path54356" d="m18.254589 65.875255-3.728322.334987-2.154268-3.061329 1.574054-3.396315 3.728322-.334986 2.154268 3.061328z" transform="matrix(.2595 .02694 -.02603 .29628 40.63254 51.369607)"/>
    <ellipse style="fill:none;fill-opacity:1;fill-rule:nonzero;stroke:#000;stroke-width:.300567;stroke-linecap:square;stroke-opacity:1;paint-order:markers stroke fill" id="path55939" cx="40.307484" cy="57.598328" rx=".51022142" ry=".45353013"/>
    <ellipse style="fill:none;fill-opacity:1;fill-rule:nonzero;stroke:#000;stroke-width:.300567;stroke-linecap:square;stroke-opacity:1;paint-order:markers stroke fill" id="ellipse55941" cx="40.307491" cy="68.483055" rx=".51022142" ry=".45353013"/>
    <path style="fill:gray;fill-opacity:1;fill-rule:nonzero;stroke:#000;stroke-width:.15037;stroke-linecap:square;stroke-opacity:1;paint-order:markers stroke fill" id="rect61104" d="M38.248199 28.724066h4.0052028v1.8509349H38.248199z"/>
    <circle style="fill:gray;fill-opacity:1;fill-rule:nonzero;stroke:#000;stroke-width:.300567;stroke-linecap:square;stroke-opacity:1;paint-order:markers stroke fill" id="path62610" cx="40.194111" cy="29.649532" r=".62360394"/>
    <path style="fill:url(#linearGradient82507);fill-opacity:1;fill-rule:nonzero;stroke:none;stroke-width:.20929;stroke-linecap:square;paint-order:markers stroke fill" id="rect82505" transform="matrix(.02959 .99956 -1 -.00215 0 0)" d="M46.711514-67.079544h1.5873555v7.1466975H46.711514z"/>
    <path style="fill:#ccc;stroke:#000;stroke-width:.179572;stroke-linecap:square;stroke-opacity:1;paint-order:markers stroke fill" id="rect83969" transform="matrix(.00621 .99998 -.99828 -.05864 0 0)" d="M55.609497-55.900562h6.2485871v.44547507H55.609497z"/>
    <path style="fill:#ccc;stroke:#000;stroke-width:.194251;stroke-linecap:square;stroke-opacity:1;paint-order:markers stroke fill" id="rect85423" transform="matrix(-.99978 .02081 .04367 -.99905 0 0)" d="M-70.406921-54.584171h6.2324324v.52263331h-6.2324324z"/>
    <path style="fill:#ccc;stroke:#000;stroke-width:.194251;stroke-linecap:square;stroke-opacity:1;paint-order:markers stroke fill" id="rect85425" transform="matrix(-.99978 .02081 .04367 -.99905 0 0)" d="M-70.465858-53.337002h6.2324324v.52263331h-6.2324324z"/>
    <path style="fill:#ccc;stroke:#000;stroke-width:.194251;stroke-linecap:square;stroke-opacity:1;paint-order:markers stroke fill" id="rect86879" transform="matrix(-.99978 .02081 .04367 -.99905 0 0)" d="M-70.471428-56.060898h6.2324324v.52263331h-6.2324324z"/>
    <path style="fill:#ccc;stroke:#000;stroke-width:.140674;stroke-linecap:square;stroke-opacity:1;paint-order:markers stroke fill" id="rect86881" transform="matrix(-.9989 .0467 .01946 -.99981 0 0)" d="M-65.869919-53.334579h3.0145383v.56667477h-3.0145383z"/>
    <path style="fill:gray;fill-opacity:1;fill-rule:nonzero;stroke:#000;stroke-width:.104468;stroke-linecap:square;stroke-opacity:1;paint-order:markers stroke fill" id="rect88337" d="M63.73632 49.336735h2.6905141v1.3299239H63.73632z"/>
  </g>
</svg>
