<svg width="19.62999" height="17.003862" version="1.1" id="svg11081" xmlns="http://www.w3.org/2000/svg">
  <g id="laser" transform="matrix(.79225 0 0 1 -50.666175 -288.56754)">
    <path style="display:inline;fill:#ffd42a;stroke:#000;stroke-width:1.12349;stroke-opacity:1;paint-order:markers stroke fill" d="m87.624998 305.00336-22.568632.006 11.278005-15.488z" id="path4004"/>
    <ellipse style="fill:red;stroke-width:0" cx="74.275681" cy="300.1514" rx="2.2644367" ry="1.687" id="ellipse4006"/>
    <path style="fill:red;stroke-width:0" d="M68.969272 299.96336h15.548121v.402H68.969272Z" id="path4008"/>
    <path style="fill:red;stroke-width:0" d="m74.064396 304.23836-.01551-8.245.507284-.009.01551 8.245z" id="path4010"/>
    <path style="fill:red;stroke-width:0" d="M67.99357 297.24436c-.0025 0-.0076 0-.0101.002a.02524456.02 0 0 0-.01262.014v.004c.0101-.002.0202-.012.02777-.02zm1.922372.705a2.9283685 2.32 0 0 0-.126223.135 1.4717576 1.166 0 0 0-.08583.132l9.575259 4.184.07195-.068a.90880402.72 0 0 0 .117387-.123l.05049-.06z" id="path4012"/>
    <path style="fill:red;stroke-width:0" d="m70.766684 295.07436-.01641.013-.01262-.019zm1.224361 1.217 5.276112 7.653c-.04292.01-.08331.023-.126223.035a1.080467.856 0 0 0-.20953.073l-5.259703-7.627a1.7418744 1.38 0 0 1 .05806-.033c.03282-.02.06311-.04.10224-.05.05428-.015.106027-.031.157778-.05zm5.989271 8.687.02146.032-.05301-.013a.19438308.154 0 0 0 .03156-.02z" id="path4014"/>
    <path style="fill:red;stroke-width:0" d="M80.856933 296.94736c.0088.008.01893.017.03029.018v-.004a.0227201.018 0 0 0-.01515-.012c-.0025-.001-.0088-.003-.0101-.002zm-1.900915.82-9.449037 4.766c.01767.02.03787.037.0568.057.03913.04.07952.08.130009.113l.08204.064 9.425055-4.75a1.4389397 1.14 0 0 0-.100978-.125 2.870306 2.274 0 0 0-.143894-.125z" id="path4016"/>
    <path style="fill:red;stroke-width:0" d="m77.97148 295.07436.01641.013.01262-.019zm-1.224361 1.217-5.276112 7.653c.04292.01.08331.023.126223.035a1.1486273.91 0 0 1 .209529.073l5.259704-7.627a1.7418744 1.38 0 0 0-.05806-.033c-.03282-.02-.06311-.04-.10224-.05a1.7103187 1.355 0 0 1-.157779-.05zm-5.989271 8.687-.02146.032.05301-.013a.19438308.154 0 0 1-.03156-.02z" id="path4018"/>
    <path style="display:inline;fill:red;stroke-width:0" d="m73.612642 297.26081-.03482.004-.09178.0137c-.03573.008-.06971.0216-.103758.031-.04498.0113-.08961.0236-.137041.0279a1.6654925 1.0060893 24.814857 0 1-.121497.006l2.053093 5.85855.532549.0496z" id="path4020"/>
    <path style="display:inline;fill:red;stroke-width:0" d="m70.479762 299.08528.000844.006.0013.00029-.000703-.005zm.05414.012c.000703.005-.0025.009-.0029.0154l.0026.00058-.000703-.005.001-.002c-.000703-.005.000165-.008.0025-.009zm.02578.006-.0017.006c.0017.0124.0019.0234.0011.0353l-.0083.0312a.32751838.21188844 31.2475 0 1-.01631.0454c-.0053.007-.0069.0135-.0095.0219a.20893414.13517021 31.247499 0 0-.01544.0426l-.0083.0312a.44186746.28586673 31.2475 0 1-.0065.0256c.0039.00086.0093.004.0091.012.0017.0124-.0016.0247-.0025.0365l.000844.006.000398.0121c-.0023.0105-.01064.0136-.01837.0119l.000563.004c.0014.0103.000515.0221-.000516.0329l.0011.0353 7.991266 1.77334-.05338-.40997zm-.08046.1892.0011.008a.04799839.03105262 31.247501 0 1 .0015-.008z" id="path4022"/>
    <path style="display:inline;fill:red;stroke-width:0" d="m75.709489 296.98367-.53388.0497-2.178693 6.21695.531847-.0476z" id="path4024"/>
    <path style="display:inline;fill:red;stroke-width:0" d="M71.937119 297.75643c-.005.001-.007.004-.0086.006a4.8647279 2.5799957 7.9502074 0 1-.128224.0767c-.03336.0188-.06547.0372-.103349.0522-.0011.003-.0021.007-.0062.009l-.03497.0203c-.01168.004-.01973.0118-.03049.017l-.01973.0118c-.0073.005-.01902.01-.02727.014l-.02315.0118-.0156.01 5.465224 4.63507.501361-.14268z" id="path4026"/>
    <path style="display:inline;fill:red;stroke-width:0" d="M71.937119 297.75643c-.005.001-.007.004-.0086.006a4.8647279 2.5799957 7.9502074 0 1-.128224.0767c-.03336.0188-.06547.0372-.103349.0522-.0011.003-.0021.007-.0062.009l-.03497.0203c-.01168.004-.01973.0118-.03049.017l-.01973.0118c-.0073.005-.01902.01-.02727.014l-.02315.0118-.0156.01 5.465224 4.63507.501361-.14268z" id="path4028"/>
    <path style="display:inline;fill:red;stroke-width:0" d="m78.467337 299.05452-7.993701 1.81303-.05307.41183 7.996274-1.81362z" id="path4030"/>
    <path style="display:inline;fill:red;stroke-width:0" d="m77.158571 297.61107-5.652886 4.73462.229014.37361 5.652547-4.73292z" id="path4032"/>
  </g>
</svg>
