<svg width="77.17601" height="77.043053" version="1.1" id="svg18654" xmlns="http://www.w3.org/2000/svg">
  <g id="rotary-pump" transform="translate(-178.27018 -418.46317)" style="display:inline">
    <path id="rect3645" style="display:inline;fill:#999;fill-opacity:1;stroke:#000;stroke-width:1;stroke-dasharray:none;stroke-opacity:1;paint-order:markers stroke fill" d="M227.59071 418.96317v1.80664h.77344v8.23242h-13.62109v-.60156h-1.7168v11.75586h1.7168v-.73828h13.62109v19.91797h-29.17773v13.21093l-.0898.002v-8.44531s-20.07226 2.15212-20.07226 5.01953c0 1.37366-.0341 2.79685-.0684 3.92382l-.041.002s-.0131 1.16675-.0176 1.64062c-.003.0816-.0156.45508-.0156.45508h.0117c-.0229 2.36173-.0684 6.69851-.12305 8.93945-.0701 2.87581 19.57766 5.11845 20.41602 5.21289v5.70899h50.42187V459.3363h-10.1289v-19.91797h13.75v.73828h1.71679v-11.75586h-1.71679v.60156h-13.75v-8.23242h.65429v-1.80664zm-23.88867 27.66016c-.35977-.00047-.77546.002-1.26758.006-1.96847.0149-5.15856.0447-6.79882.0449-.49932.00006-.85344-.002-1.10743.0293h-6.97656v7.3379h7.24805v-.0312c.82763-.0259 2.35837.001 3.38476.0156 1.05878.0149 1.56701.0156 2.0293.0156.46229 0 .87907-.00064 1.25195.0293.37289.0299.701.0907 1.10352.4043.40252.3136.87904.87888 1.11719 1.6543.23814.77541.23828 1.76092.23828 2.74414l9.93164-.17969c.0298-.9236.0598-1.84784.0449-2.66797-.0148-.82013-.0732-1.53569-.25195-2.28125-.17877-.74556-.47738-1.52137-.93946-2.29687-.46207-.77551-1.08831-1.55196-1.78906-2.19336-.70075-.64141-1.47618-1.14674-2.32617-1.56446-.84999-.41771-1.77418-.7459-2.60938-.91015-.6264-.12319-1.2039-.15485-2.2832-.15625z"/>
    <rect style="fill:#4d4d4d;stroke-width:1.07682" id="rect3687" width="24.996719" height=".98267198" x="223.82787" y="460.82504" rx=".30000001" ry=".30000001"/>
    <rect style="fill:#4d4d4d;stroke-width:1.07682" id="rect3689" width="24.996719" height=".98267198" x="223.85857" y="462.48331" rx=".30000001" ry=".30000001"/>
    <rect style="fill:#4d4d4d;stroke-width:1.07682" id="rect3691" width="24.996719" height=".98267198" x="223.91998" y="464.2644" rx=".30000001" ry=".30000001"/>
    <rect style="fill:#4d4d4d;stroke-width:1.07682" id="rect3693" width="24.996719" height=".98267198" x="223.85857" y="465.92267" rx=".30000001" ry=".30000001"/>
    <rect style="fill:#4d4d4d;stroke-width:1.07682" id="rect3695" width="24.996719" height=".98267198" x="223.79715" y="467.4581" rx=".30000001" ry=".30000001"/>
    <rect style="fill:#4d4d4d;stroke-width:1.07682" id="rect3697" width="24.996719" height=".98267198" x="223.85857" y="469.05493" rx=".30000001" ry=".30000001"/>
    <rect style="fill:#4d4d4d;stroke-width:1.07682" id="rect3699" width="24.996719" height=".98267198" x="223.89928" y="470.64542" rx=".30000001" ry=".30000001"/>
    <rect style="fill:#4d4d4d;stroke-width:1.07682" id="rect3701" width="24.996719" height=".98267198" x="223.89928" y="472.2131" rx=".30000001" ry=".30000001"/>
    <rect style="fill:#4d4d4d;stroke-width:1.07682" id="rect3703" width="24.996719" height=".98267198" x="223.84702" y="473.78079" rx=".30000001" ry=".30000001"/>
    <rect style="fill:#4d4d4d;stroke-width:1.07682" id="rect3705" width="24.996719" height=".98267198" x="223.84702" y="475.34851" rx=".30000001" ry=".30000001"/>
    <rect style="fill:#4d4d4d;stroke-width:1.07682" id="rect3707" width="24.996719" height=".98267198" x="223.84702" y="476.96848" rx=".30000001" ry=".30000001"/>
    <rect style="fill:#4d4d4d;stroke-width:1.07682" id="rect3709" width="24.996719" height=".98267198" x="223.89926" y="478.64066" rx=".30000001" ry=".30000001"/>
    <rect style="fill:#4d4d4d;stroke-width:1.07682" id="rect3711" width="24.996719" height=".98267198" x="223.89928" y="480.15613" rx=".30000001" ry=".30000001"/>
    <rect style="fill:#4d4d4d;stroke-width:1.07682" id="rect3713" width="24.996719" height=".98267198" x="223.92542" y="481.82834" rx=".30000001" ry=".30000001"/>
    <rect style="fill:#4d4d4d;stroke-width:1.07682" id="rect3715" width="24.996719" height=".98267198" x="223.92542" y="483.39606" rx=".30000001" ry=".30000001"/>
    <rect style="fill:#4d4d4d;stroke-width:1.07682" id="rect3717" width="24.996719" height=".98267198" x="223.92542" y="485.01602" rx=".30000001" ry=".30000001"/>
    <rect style="fill:#4d4d4d;stroke-width:1.07682" id="rect3719" width="24.996719" height=".98267198" x="223.97766" y="486.63596" rx=".30000001" ry=".30000001"/>
    <rect style="fill:#4d4d4d;stroke-width:1.07682" id="rect3721" width="24.996719" height=".98267198" x="223.87317" y="488.20367" rx=".30000001" ry=".30000001"/>
    <rect style="fill:#4d4d4d;stroke-width:1.07682" id="rect3723" width="24.996719" height=".98267198" x="224.00378" y="489.77139" rx=".30000001" ry=".30000001"/>
    <rect style="fill:#4d4d4d;stroke-width:1.07682" id="rect3725" width="24.996719" height=".98267198" x="224.00378" y="491.39136" rx=".30000001" ry=".30000001"/>
    <rect style="fill:#4d4d4d;stroke-width:1.07682" id="rect3727" width="24.996719" height=".98267198" x="224.05603" y="493.01129" rx=".30000001" ry=".30000001"/>
    <path style="display:inline;fill:red;stroke:#000;stroke-width:1;stroke-dasharray:none;stroke-opacity:1;paint-order:markers stroke fill" id="rect3667" d="M201.25661 459.32928h20.3945v35.64232h-20.3945z"/>
    <path style="display:inline;fill:#333;stroke:#000;stroke-width:.5;stroke-dasharray:none;stroke-opacity:1;paint-order:markers stroke fill" id="path3669" d="M203.96401 462.01245c-.0376.0244-1.05091.0294-1.08872.005-.0379-.0239-.54839-.99529-.54859-1.04362-.00019-.0483.50253-1.02466.54014-1.04901.0377-.0244 1.05092-.0294 1.08873-.005.0378.0239.54838.99529.54858 1.04361.0002.0483-.50252 1.02468-.54014 1.04902z"/>
    <path style="display:inline;fill:#333;stroke:#000;stroke-width:.500001;stroke-dasharray:none;stroke-opacity:1;paint-order:markers stroke fill" id="path3671" d="M220.56675 461.69923c-.0376.0218-1.05091.0263-1.08872.005-.0379-.0215-.54839-.8923-.54859-.93563-.00019-.0433.50253-.91863.54014-.94046.0377-.0218 1.05092-.0263 1.08873-.005.0378.0215.54838.89229.54858.93561.0002.0433-.50252.91864-.54014.94047z"/>
    <path style="display:inline;fill:#333;stroke:#000;stroke-width:.5;stroke-dasharray:none;stroke-opacity:1;paint-order:markers stroke fill" id="path3673" d="M220.31018 477.30216c-.0392.0229-1.09642.0276-1.13587.005-.0395-.0225-.57214-.93572-.57234-.98116-.0002-.0454.52429-.96334.56353-.98623.0393-.0229 1.09643-.0276 1.13588-.005.0394.0225.57213.93572.57234.98115.0002.0454-.52429.96335-.56354.98624z"/>
    <path style="display:inline;fill:#333;stroke:#000;stroke-width:.5;stroke-dasharray:none;stroke-opacity:1;paint-order:markers stroke fill" id="path3675" d="M220.4737 494.30882c-.0392.0229-1.09642.0276-1.13587.005-.0395-.0225-.57214-.93572-.57234-.98116-.0002-.0454.52429-.96334.56353-.98623.0393-.0229 1.09643-.0276 1.13588-.005.0394.0225.57213.93572.57234.98115.0002.0454-.52429.96335-.56354.98624z"/>
    <path style="display:inline;fill:#333;stroke:#000;stroke-width:.5;stroke-dasharray:none;stroke-opacity:1;paint-order:markers stroke fill" id="path3677" d="M203.71234 477.38392c-.0392.0229-1.09642.0276-1.13587.005-.0395-.0225-.57214-.93572-.57234-.98116-.0002-.0454.52429-.96334.56353-.98623.0393-.0229 1.09643-.0276 1.13588-.005.0394.0225.57213.93572.57234.98115.0002.0454-.52429.96335-.56354.98624z"/>
    <path style="display:inline;fill:#333;stroke:#000;stroke-width:.5;stroke-dasharray:none;stroke-opacity:1;paint-order:markers stroke fill" id="path3679" d="M203.30352 494.22705c-.0392.0229-1.09642.0276-1.13587.005-.0395-.0225-.57214-.93572-.57234-.98116-.0002-.0454.52429-.96334.56353-.98623.0393-.0229 1.09643-.0276 1.13588-.005.0394.0225.57213.93572.57234.98115.0002.0454-.52429.96335-.56354.98624z"/>
  </g>
</svg>
