<svg version="1.1" id="svg18654" xmlns="http://www.w3.org/2000/svg" viewBox="0 0 300 299.48318">
  <g id="rotary-pump" transform="matrix(3.88722 0 0 3.88722 -692.97513 -1626.6577)" style="display:inline">
    <path id="rect3645" style="display:inline;fill:#999;fill-opacity:1;stroke:#000;stroke-width:1;stroke-dasharray:none;stroke-opacity:1;paint-order:markers stroke fill" d="M227.59071 418.96317v1.80664h.77344v8.23242h-13.62109v-.60156h-1.7168v11.75586h1.7168v-.73828h13.62109v19.91797h-29.17773v13.21093l-.0898.002v-8.44531s-20.07226 2.15212-20.07226 5.01953c0 1.37366-.0341 2.79685-.0684 3.92382l-.041.002s-.0131 1.16675-.0176 1.64062c-.003.0816-.0156.45508-.0156.45508h.0117c-.0229 2.36173-.0684 6.69851-.12305 8.93945-.0701 2.87581 19.57766 5.11845 20.41602 5.21289v5.70899h50.42187V459.3363h-10.1289v-19.91797h13.75v.73828h1.71679v-11.75586h-1.71679v.60156h-13.75v-8.23242h.65429v-1.80664zm-23.88867 27.66016c-.35977-.00047-.77546.002-1.26758.006-1.96847.0149-5.15856.0447-6.79882.0449-.49932.00006-.85344-.002-1.10743.0293h-6.97656v7.3379h7.24805v-.0312c.82763-.0259 2.35837.001 3.38476.0156 1.05878.0149 1.56701.0156 2.0293.0156.46229 0 .87907-.00064 1.25195.0293.37289.0299.701.0907 1.10352.4043.40252.3136.87904.87888 1.11719 1.6543.23814.77541.23828 1.76092.23828 2.74414l9.93164-.17969c.0298-.9236.0598-1.84784.0449-2.66797-.0148-.82013-.0732-1.53569-.25195-2.28125-.17877-.74556-.47738-1.52137-.93946-2.29687-.46207-.77551-1.08831-1.55196-1.78906-2.19336-.70075-.64141-1.47618-1.14674-2.32617-1.56446-.84999-.41771-1.77418-.7459-2.60938-.91015-.6264-.12319-1.2039-.15485-2.2832-.15625z"/>
    <path id="rect3687" style="fill:#4d4d4d;stroke-width:1.07682" d="M224.1276 460.8245c-.1662 0-.29883.13458-.29883.30078v.38281c0 .1662.13263.29883.29883.29883h24.39649c.1662 0 .30078-.13263.30078-.29883v-.38281c0-.1662-.13458-.30078-.30078-.30078zm.0312 1.6582c-.1662 0-.30078.13458-.30078.30078v.38281c0 .1662.13458.29883.30078.29883h24.39649c.1662 0 .30078-.13263.30078-.29883v-.38281c0-.1662-.13458-.30078-.30078-.30078zm.0606 1.78125c-.1662 0-.29883.13458-.29883.30078v.38281c0 .1662.13263.29883.29883.29883h24.39648c.1662 0 .30078-.13263.30078-.29883v-.38281c0-.1662-.13458-.30078-.30078-.30078zm-.0606 1.6582c-.1662 0-.30078.13459-.30078.30079v.38281c0 .1662.13458.29883.30078.29883h24.39649c.1662 0 .30078-.13263.30078-.29883v-.38281c0-.1662-.13458-.30079-.30078-.30079zm-.0625 1.53516c-.1662 0-.29883.13458-.29883.30078v.38281c0 .1662.13263.30079.29883.30079h24.39844c.1662 0 .29883-.13459.29883-.30079v-.38281c0-.1662-.13263-.30078-.29883-.30078zm.0625 1.59766c-.1662 0-.30078.13458-.30078.30078v.38281c0 .1662.13458.29883.30078.29883h24.39649c.1662 0 .30078-.13263.30078-.29883v-.38281c0-.1662-.13458-.30078-.30078-.30078zm.041 1.58984c-.1662 0-.30078.13458-.30078.30078v.38281c0 .1662.13458.29883.30078.29883h24.39648c.1662 0 .29883-.13263.29883-.29883v-.38281c0-.1662-.13263-.30078-.29883-.30078zm0 1.56836c-.1662 0-.30078.13458-.30078.30078v.38086c0 .1662.13458.30078.30078.30078h24.39648c.1662 0 .29883-.13458.29883-.30078v-.38086c0-.1662-.13263-.30078-.29883-.30078zm-.0527 1.56836c-.1662 0-.30078.13263-.30078.29883v.38281c0 .1662.13458.30078.30078.30078h24.39649c.1662 0 .30078-.13458.30078-.30078v-.38281c0-.1662-.13458-.29883-.30078-.29883zm0 1.56641c-.1662 0-.30078.13458-.30078.30078v.38281c0 .1662.13458.29883.30078.29883h24.39649c.1662 0 .30078-.13263.30078-.29883v-.38281c0-.1662-.13458-.30078-.30078-.30078zm0 1.62109c-.1662 0-.30078.13263-.30078.29883v.38281c0 .1662.13458.30078.30078.30078h24.39649c.1662 0 .30078-.13458.30078-.30078v-.38281c0-.1662-.13458-.29883-.30078-.29883zm.0527 1.67187c-.1662 0-.30078.13263-.30078.29883v.38281c0 .1662.13458.30079.30078.30079h24.39648c.1662 0 .29883-.13459.29883-.30079v-.38281c0-.1662-.13263-.29883-.29883-.29883zm0 1.51563c-.1662 0-.30078.13263-.30078.29883v.38281c0 .1662.13458.30078.30078.30078h24.39648c.1662 0 .29883-.13458.29883-.30078v-.38281c0-.1662-.13263-.29883-.29883-.29883zm.0254 1.67187c-.1662 0-.30078.13459-.30078.30079v.38085c0 .1662.13458.30079.30078.30079h24.39648c.1662 0 .30078-.13459.30078-.30079v-.38085c0-.1662-.13458-.30079-.30078-.30079zm0 1.56836c-.1662 0-.30078.13263-.30078.29883v.38281c0 .1662.13458.30079.30078.30079h24.39648c.1662 0 .30078-.13459.30078-.30079v-.38281c0-.1662-.13458-.29883-.30078-.29883zm0 1.61914c-.1662 0-.30078.13459-.30078.30079v.38281c0 .1662.13458.29883.30078.29883h24.39648c.1662 0 .30078-.13263.30078-.29883v-.38281c0-.1662-.13458-.30079-.30078-.30079zm.0527 1.61914c-.1662 0-.30078.13459-.30078.30079v.38281c0 .1662.13458.30078.30078.30078h24.39649c.1662 0 .30078-.13458.30078-.30078v-.38281c0-.1662-.13458-.30079-.30078-.30079zm-.10547 1.56836c-.1662 0-.29882.13459-.29882.30079v.38281c0 .1662.13262.29883.29882.29883h24.39649c.1662 0 .30078-.13263.30078-.29883v-.38281c0-.1662-.13458-.30079-.30078-.30079zm.13086 1.56836c-.1662 0-.29882.13263-.29882.29883v.38281c0 .1662.13262.30079.29882.30079h24.39649c.1662 0 .30078-.13459.30078-.30079v-.38281c0-.1662-.13458-.29883-.30078-.29883zm0 1.61914c-.1662 0-.29882.13459-.29882.30079v.38281c0 .1662.13262.29883.29882.29883h24.39649c.1662 0 .30078-.13263.30078-.29883v-.38281c0-.1662-.13458-.30079-.30078-.30079zm.0527 1.6211c-.1662 0-.30078.13263-.30078.29883v.38281c0 .1662.13458.30078.30078.30078h24.39648c.1662 0 .30078-.13458.30078-.30078v-.38281c0-.1662-.13458-.29883-.30078-.29883z"/>
    <path style="display:inline;fill:red;stroke:#000;stroke-width:1;stroke-dasharray:none;stroke-opacity:1;paint-order:markers stroke fill" id="rect3667" d="M201.25661 459.32928h20.3945v35.64232h-20.3945z"/>
    <path id="path3669" style="display:inline;fill:#333;stroke:#000;stroke-width:.5;stroke-dasharray:none;stroke-opacity:1;paint-order:markers stroke fill" d="M220.01432 459.80887c-.26274.001-.52607.009-.54492.0195-.0376.0218-.53925.89616-.53906.93946.0002.0433.50897.91404.54687.93554.0378.0213 1.05225.0179 1.08985-.004.0376-.0218.53926-.89811.53906-.94141-.0002-.0433-.50908-.91405-.54688-.93555-.0189-.0106-.28218-.0149-.54492-.0137zm-16.60351.0957c-.26275.001-.52608.007-.54493.0195-.0376.0244-.53925 1.00053-.53906 1.04883.0002.0483.51093 1.02102.54883 1.04492.0378.0244 1.05029.0185 1.08789-.006.0376-.0243.54121-1.00053.54102-1.04883-.0002-.0483-.51103-1.01907-.54883-1.04297-.0189-.0122-.28218-.0169-.54492-.0156zm16.32226 15.41601c-.27413.001-.54871.008-.56836.0195-.0392.0229-.5627.94093-.5625.98633.0002.0454.53277.95797.57227.98047.0395.0226 1.09556.019 1.13476-.004.0393-.0229.56466-.94092.56446-.98632-.00021-.0454-.53287-.95993-.57227-.98243-.0197-.0113-.29423-.0149-.56836-.0137zm-16.59766.082c-.27412.001-.54871.008-.56835.0195-.0392.0229-.5627.94093-.5625.98633.00019.0454.53276.95797.57226.98047.0394.0226 1.09557.017 1.13477-.006.0393-.0229.56465-.94093.56445-.98633-.00021-.0454-.53287-.95797-.57227-.98047-.0197-.0113-.29423-.0149-.56836-.0137zm-.4082 16.8418c-.27412.001-.54871.008-.56836.0195-.0392.0229-.56465.94093-.56445.98633.0002.0454.53472.95992.57422.98242.0394.0226 1.09556.017 1.13476-.006.0393-.0229.56466-.94093.56446-.98633-.00021-.0454-.53287-.95797-.57227-.98047-.0197-.0113-.29423-.0168-.56836-.0156zm17.16992.082c-.27412.001-.54871.008-.56836.0195-.0392.0229-.5627.94093-.5625.98633.0002.0454.53277.95992.57227.98242.0395.0226 1.09557.017 1.13477-.006.0392-.0229.56465-.94093.56445-.98633-.00021-.0454-.53287-.95796-.57227-.98046-.0197-.0113-.29423-.0168-.56836-.0156z"/>
  </g>
</svg>
