<svg width="45.782867" height="48.563015" version="1.1" id="svg19266" xmlns:xlink="http://www.w3.org/1999/xlink" xmlns="http://www.w3.org/2000/svg">
  <defs id="defs19263">
    <linearGradient id="linearGradient29474">
      <stop style="stop-color:#929292;stop-opacity:1" offset="0" id="stop29470"/>
      <stop style="stop-color:#9a9a9a;stop-opacity:1" offset=".20418006" id="stop29478"/>
      <stop style="stop-color:#848484;stop-opacity:1" offset=".39951769" id="stop29480"/>
      <stop style="stop-color:#727272;stop-opacity:1" offset=".60168809" id="stop29482"/>
      <stop style="stop-color:#606060;stop-opacity:1" offset=".79602093" id="stop29484"/>
      <stop style="stop-color:#2b2b2b;stop-opacity:1" offset="1" id="stop29472"/>
    </linearGradient>
    <linearGradient id="linearGradient29458">
      <stop style="stop-color:#acacac;stop-opacity:1" offset="0" id="stop29454"/>
      <stop style="stop-color:#626262;stop-opacity:1" offset=".20096463" id="stop29462"/>
      <stop style="stop-color:#575757;stop-opacity:1" offset=".40000001" id="stop29464"/>
      <stop style="stop-color:#676767;stop-opacity:1" offset=".60490352" id="stop29466"/>
      <stop style="stop-color:#b0b0b0;stop-opacity:1" offset=".79923636" id="stop29468"/>
      <stop style="stop-color:#adadad;stop-opacity:1" offset="1" id="stop29456"/>
    </linearGradient>
    <linearGradient id="linearGradient29442">
      <stop style="stop-color:#bdbdbd;stop-opacity:1" offset="0" id="stop29438"/>
      <stop style="stop-color:#a8a8a8;stop-opacity:1" offset=".2" id="stop29446"/>
      <stop style="stop-color:#8c8c8c;stop-opacity:1" offset=".39951771" id="stop29448"/>
      <stop style="stop-color:#5b5b5b;stop-opacity:1" offset=".60490352" id="stop29450"/>
      <stop style="stop-color:#606060;stop-opacity:1" offset=".79923636" id="stop29452"/>
      <stop style="stop-color:silver;stop-opacity:1" offset="1" id="stop29440"/>
    </linearGradient>
    <linearGradient id="linearGradient28700">
      <stop style="stop-color:#c9634e;stop-opacity:1" offset="0" id="stop28696"/>
      <stop style="stop-color:#f14a2c;stop-opacity:1" offset=".2" id="stop28704"/>
      <stop style="stop-color:#e34424;stop-opacity:1" offset=".40000001" id="stop28706"/>
      <stop style="stop-color:#ef4f32;stop-opacity:.98113215" offset=".60000002" id="stop28708"/>
      <stop style="stop-color:#f68a74;stop-opacity:1" offset=".79923636" id="stop28710"/>
      <stop style="stop-color:#ff2525;stop-opacity:.93081754" offset="1" id="stop28698"/>
    </linearGradient>
    <linearGradient xlink:href="#linearGradient31314" id="linearGradient31318" x1="134.83498" y1="185.42915" x2="171.70763" y2="185.42915" gradientUnits="userSpaceOnUse" gradientTransform="matrix(1.24165 0 0 .2235 -151.59035 33.816425)"/>
    <linearGradient id="linearGradient31314">
      <stop style="stop-color:#b3b3b3;stop-opacity:1" offset=".07717042" id="stop31302"/>
      <stop style="stop-color:#d2d2d2;stop-opacity:1" offset=".24919616" id="stop31304"/>
      <stop style="stop-color:#9c9c9c;stop-opacity:1" offset=".40956593" id="stop31306"/>
      <stop style="stop-color:#afafaf;stop-opacity:1" offset=".61816716" id="stop31308"/>
      <stop style="stop-color:#d0d0d0;stop-opacity:1" offset=".77893889" id="stop31310"/>
      <stop style="stop-color:#989898;stop-opacity:1" offset=".95498395" id="stop31312"/>
    </linearGradient>
    <linearGradient xlink:href="#linearGradient31314" id="linearGradient30439" gradientUnits="userSpaceOnUse" gradientTransform="matrix(.77838 0 0 1.61031 -81.05124 -244.30511)" x1="134.83498" y1="185.42915" x2="171.70763" y2="185.42915"/>
    <linearGradient xlink:href="#linearGradient28700" id="linearGradient28702" x1="26.192024" y1="39.753902" x2="51.866421" y2="55.489822" gradientUnits="userSpaceOnUse"/>
    <linearGradient xlink:href="#linearGradient29442" id="linearGradient29444" x1="40.405777" y1="21.268559" x2="73.111427" y2="22.554464" gradientUnits="userSpaceOnUse" gradientTransform="matrix(.86395 .50358 -.47798 .87837 0 0)"/>
    <linearGradient xlink:href="#linearGradient29458" id="linearGradient29460" x1="27.744911" y1="40.582108" x2="50.417057" y2="55.282772" gradientUnits="userSpaceOnUse"/>
    <linearGradient xlink:href="#linearGradient29474" id="linearGradient29476" x1="39.132748" y1="42.031471" x2="38.718643" y2="54.55809" gradientUnits="userSpaceOnUse"/>
  </defs>
  <g id="salt" transform="translate(-15.827211 -30.07465)">
    <path id="path30437" style="fill:url(#linearGradient30439);fill-opacity:1;stroke-width:1.0594" d="M41.06571 30.07465c.07731.01258.154797.02438.232027.03728.2035.03565.406599.07341.609265.112944-.0054-.02029-.0091-.04006-.01137-.05976a14.241977 6.5931061 0 0 0-.829922-.090464Zm-15.109155 8.263584c-.0132.0076-.02444.01819-.03669.02741-.06396.04521-.129242.09019-.201022.119523-.164993.08362-.133698.06784-.115238.05866v.000548c.01654-.0083.03414-.01675.03927-.01919-.0051.0028-.01758.0094-.04082.02138.000765-.001.000882-.0013.0016-.0022-.01001.005-.0175.0088-.02739.01371H25.5757c-.06022.0538-.170868.162772-.09767.07676-.08512.07599-.191303.138628-.194303.139261-.07464.05549-.112676.0831-.135909.09978-.09903.09401-.204449.176611-.318844.248916-.03903.02257-.104789.07888-.137459.1113-.0085.007-.01495.01217-.0217.01755-.01127.01553-.03224.04167-.07028.08499-.03938.04398-.07725.08915-.114205.135423-.01291.01446-.02485.02995-.03876.04331-.0053.0051-.0087.0082-.01344.01262-.0013.0017-.0018.0027-.0031.0043-.01228.01794-.0376.05552-.04961.07128-.0012.0016-.0037.0051-.0052.0071-.0057.01212-.0125.02338-.02015.03126-.03203.05473-.06049.09124-.0832.121168-.04435.09207-.115143.232344-.125057.234113-.0091.01405-.01826.02815-.02739.04222v31.327276h.08785a14.241977 6.5931061 0 0 0-.08785.676021 14.241977 6.5931061 0 0 0 14.242024 6.594638 14.241977 6.5931061 0 0 0 14.242025-6.594638 14.241977 6.5931061 0 0 0-.08992-.676021h.08992V55.385715c-.195011-.133176-.391351-.269646-.574642-.417785.06888.02535.04109.01102-.112655-.08718-.02925-.01662-.05901-.03291-.08837-.04935-.203983-.126404-.334617-.212202-.61495-.407367-.149092-.0985-.287379-.21068-.445968-.292779-.234757-.130173-.468169-.262754-.7059-.387081-.28897-.160085-.584063-.309635-.864546-.485771-.229737-.131372-.460734-.258132-.691431-.386529-.192729-.117948-.398061-.212743-.595312-.321837-.358028-.171267-.715262-.342907-1.066085-.530181-.33141-.198816-.669594-.386203-.991154-.602553-.339323-.20688-.690524-.389947-1.026294-.603649-.292815-.196496-.59996-.369208-.894002-.564175-.328778-.208881-.653514-.424253-.979747-.637636-.31493-.242879-.642526-.466449-.961698-.702887-.228722-.166543-.454401-.335816-.688847-.492898-.217562-.166063-.440431-.323914-.665592-.478095-.124264-.107411-.269032-.18441-.406177-.270847-.134768-.072757-.394389-.207365-.625285-.355282-.208275-.100494-.390627-.259419-.587044-.381598-.288005-.186381-.573594-.375199-.859896-.564722-.23605-.15331-.476357-.299275-.713135-.45123-.281855-.186778-.554941-.385768-.822172-.595425-.178248-.135513-.341346-.289467-.539502-.394758-.253221-.177445-.504466-.357807-.751375-.544984-.245871-.180575-.497593-.352411-.745691-.529633-.361657-.235676-.713322-.488921-1.078487-.718787-.453473-.303376-.908407-.603921-1.361157-.908489-.538595-.346492-1.089871-.670512-1.623157-1.026369-.608489-.407249-1.216926-.815607-1.855701-1.168372-.610997-.345299-1.200384-.728892-1.800406-1.094903-.28808-.191434-.572644-.388709-.855762-.588298-.03045.0138-.05565.02128-.06925.01644-.0028.000312-.006.000784-.0088.0011.0066-.0034.01355-.007.02015-.0104.0478-.03813-.03191.02024-.0186.0055.0065-.0072.0299-.02342.0217-.01864zm-.380339.219858c-.0083.0041.0318-.01645.02739-.01426.01718-.02371.000086-.01029-.02739.01426z"/>
    <path id="path31294" style="fill:url(#linearGradient31318);fill-opacity:1;stroke-width:.498473" d="M38.89195 71.880245a22.718232.91505818 0 0 0-22.577726.82114H16.1741v4.92716h.140124a22.718232.91505818 0 0 0-.140124.0938 22.718232.91505818 0 0 0 22.717994.91532 22.718232.91505818 0 0 0 22.717984-.91532 22.718232.91505818 0 0 0-.142995-.0938h.142995v-4.92716h-.142995a22.718232.91505818 0 0 0-22.575082-.82114zm-23.064739.91496.346753 4.97446z"/>
    <path id="path24268" style="fill:url(#linearGradient29444);fill-opacity:1;stroke-width:.384079;stroke-dasharray:.192039,.192039" d="M28.579651 37.427689a16.04817 6.5879476 30.578489 0 0-4.08709 1.854667 16.04817 6.5879476 30.578489 0 0 10.713042 13.870471 16.04817 6.5879476 30.578489 0 0 17.014465 2.290817 16.04817 6.5879476 30.578489 0 0-10.713041-13.870472 16.04817 6.5879476 30.578489 0 0-12.927376-4.145483Z"/>
    <path id="path25060" style="fill:url(#linearGradient28702);fill-opacity:1;stroke-width:.349992;stroke-dasharray:.174997,.174997" d="M29.346583 38.255397a14.663122 5.9872414 30.194104 0 0-3.744839 1.680834 14.663122 5.9872414 30.194104 0 0 9.815936 12.570423 14.663122 5.9872414 30.194104 0 0 15.589678 2.076104 14.663122 5.9872414 30.194104 0 0-9.815933-12.570424 14.663122 5.9872414 30.194104 0 0-11.844842-3.756937Z"/>
    <path id="path25788" style="fill:url(#linearGradient29460);fill-opacity:1;stroke-width:.315818;stroke-dasharray:.157909,.157909" d="M30.686168 39.290212a13.190802 5.419284 30.6369 0 0-3.357945 1.526316 13.190802 5.419284 30.6369 0 0 8.801815 11.414825 13.190802 5.419284 30.6369 0 0 13.979048 1.885248 13.190802 5.419284 30.6369 0 0-8.801812-11.414826 13.190802 5.419284 30.6369 0 0-10.621106-3.411563z"/>
    <path id="path27968" style="fill:url(#linearGradient29476);fill-opacity:1;stroke-width:.283433;stroke-dasharray:.141717,.141717" d="M31.469269 40.117948a11.870565 4.8503169 30.2427 0 0-3.030574 1.36214 11.870565 4.8503169 30.2427 0 0 7.943712 10.187002 11.870565 4.8503169 30.2427 0 0 12.616209 1.682464 11.870565 4.8503169 30.2427 0 0-7.94371-10.187004 11.870565 4.8503169 30.2427 0 0-9.585637-3.044602z"/>
  </g>
</svg>
