<svg viewBox="0 0 300.00001 259.86559" version="1.1" id="svg11081" xmlns="http://www.w3.org/2000/svg">
  <g id="laser" transform="matrix(12.10776 0 0 15.28274 -774.31791 -4410.102)">
    <path style="display:inline;fill:#ffd42a;stroke:#000;stroke-width:1.12349;stroke-opacity:1;paint-order:markers stroke fill" d="m87.624998 305.00336-22.568632.006 11.278005-15.488z" id="path4004"/>
    <path id="ellipse4006" style="fill:red;stroke-width:0" d="m70.736677 295.06754.01479.0195.01479-.0137zm7.262735 0-.02712.006.01479.0137zm-3.444005.91602-.505384.01.0049 2.48438a2.2644367 1.687 0 0 0-.01479 0l-.426495-1.2168-.03698.004-.09122.0137c-.03573.008-.06949.0218-.103542.0312-.04498.0113-.08816.023-.135591.0273a1.6654925 1.0060893 24.814857 0 1-.123264.006l.421564 1.20117-1.553131-2.25195h-.0025c-.05175.019-.103498.0358-.157778.0508-.03913.01-.06826.0288-.101077.0488a1.7418744 1.38 0 0 0-.05917.0332l1.54327 2.23828a2.2644367 1.687 0 0 0-.133126.0625l-1.143893-.96875c-.005.001-.0083.004-.0099.006a4.8647279 2.5799957 7.9502074 0 1-.128195.0762c-.03336.0188-.0632.0377-.101077.0527-.0011.003-.0033.006-.0074.008l-.03451.0215c-.01168.004-.02129.0104-.03205.0156l-.01972.0137c-.0073.005-.01887.01-.02712.0137l-.02219.0117-.01479.01 1.141428.96875a2.2644367 1.687 0 0 0-.157779.13476l-2.608273-1.14062a2.9283685 2.32 0 0 0-.12573.13672 1.4717576 1.166 0 0 0-.08629.13086l2.586086 1.13086a2.2644367 1.687 0 0 0-.07889.125l-1.651742-.36914v.006c.0017.0124.0008.0232 0 .0351l-.0074.0312a.32751838.21188844 31.2475 0 1-.01726.0469c-.0053.007-.0073.0131-.0099.0215a.20893414.13517021 31.247499 0 0-.01479.043l-.0099.0312a.44186746.28586673 31.2475 0 1-.0049.0254c.0039.00086.01006.004.0099.0117.0017.0124-.0016.0253-.0025.0371v.0177c-.0023.0105-.0095.0134-.01726.0117v.004c.0014.0103.001.0224 0 .0332v.0352l1.567922.34766a2.2644367 1.687 0 0 0-.02219.12304h-3.061886v.40039h3.064351a2.2644367 1.687 0 0 0 .03451.14063l-1.59504.36328-.05177.41016 1.80952-.41016a2.2644367 1.687 0 0 0 .157778.20899l-2.88192 1.45507c.01767.02.03777.0386.0567.0586.03913.04.08017.0803.13066.11328l.08135.0625 2.869594-1.44727a2.2644367 1.687 0 0 0 .04438.0352l-1.183337.99023.229271.375 1.358374-1.13476a2.2644367 1.687 0 0 0 .0049.002l-1.627089 2.35742c.04292.01.08282.0232.125729.0352a1.1486273.91 0 0 1 .20955.0723l1.617228-2.34375a2.2644367 1.687 0 0 0 .103542.0312l-.530037 1.51172.532502-.0488.483197-1.37891a2.2644367 1.687 0 0 0 .04684.002l.0049 2.41211.507849-.008-.0049-2.4082a2.2644367 1.687 0 0 0 .120799-.0137l.488127 1.39454.532502.0488-.544829-1.55273a2.2644367 1.687 0 0 0 .118334-.0371l1.649277 2.39062a1.080467.856 0 0 1 .20955-.0723c.04291-.012.08281-.0252.125729-.0352l-1.671464-2.42383a2.2644367 1.687 0 0 0 .06656-.0391l1.343582 1.13867.500453-.14257-1.484103-1.25782a2.2644367 1.687 0 0 0 .165175-.17187l3.091469 1.35156.07149-.0664a.90880402.72 0 0 0 .118333-.12304l.04931-.0606-3.022442-1.32226 1.982091.43945-.05424-.41016-1.915528-.42773a2.2644367 1.687 0 0 0 .0099-.0645h7.999856v-.40039h-7.99246a2.2644367 1.687 0 0 0-.0099-.0664l1.900736-.43164.05177-.41211-2.088098.47265a2.2644367 1.687 0 0 0-.03945-.0684l2.859733-1.4414a1.4389397 1.14 0 0 0-.101077-.125 2.870306 2.274 0 0 0-.142986-.125l-2.820289 1.42187a2.2644367 1.687 0 0 0-.08382-.084l1.336185-1.11914-.229271-.375-1.464381 1.22656a2.2644367 1.687 0 0 0-.212015-.11328l1.58518-2.29883a1.7418744 1.38 0 0 0-.05917-.0332c-.03282-.02-.06195-.0388-.101077-.0488a1.7103187 1.355 0 0 1-.157778-.0508h-.0025l-1.59011 2.30664a2.2644367 1.687 0 0 0-.01233-.004l.564551-1.61132-.532502.0508-.510314 1.45507a2.2644367 1.687 0 0 0-.106008-.0117zm6.301273.96289c.0088.008.01822.0185.02958.0195v-.004a.0227201.018 0 0 0-.01479-.0137c-.0025-.001-.0086-.003-.0099-.002zm-12.863867.29882c-.0025 0-.0074-.00004-.0099.002a.02524456.02 0 0 0-.01233.0137v.004c.0101-.002.01955-.0115.02712-.0195zm2.487474 1.8418v.004h.0025zm.05424.01c.00053.004-.0014.008-.0025.0117l.0025-.002c-.000703-.005.00013-.009.0025-.01zm-.0025.0117c-.000338.001.000099.002 0 .004h.0025zm-.05177.18359v.008a.04799839.03105262 31.247501 0 1 .0025-.008zm.278578 5.68555-.02219.0332.05177-.0137a.19438308.154 0 0 1-.02958-.0195zm7.220825 0a.19438308.154 0 0 1-.03205.0195l.05424.0137z"/>
  </g>
</svg>
